<?xml version="1.0" encoding="utf-8"?>
<!-- Generator: Adobe Illustrator 24.2.0, SVG Export Plug-In . SVG Version: 6.00 Build 0)  -->
<svg version="1.1" id="Layer_1" xmlns="http://www.w3.org/2000/svg" xmlns:xlink="http://www.w3.org/1999/xlink" x="0px" y="0px"
	 viewBox="0 0 44.2 35.4" style="enable-background:new 0 0 44.2 35.4;" xml:space="preserve">
<style type="text/css">
	.st0{fill:#E9CD98;stroke:#513F2E;stroke-width:1;}
	.st1{fill:none;stroke:#513F2E;stroke-width:1;}
</style>
<g>
	<path class="st0" d="M6.1,1.7h32c2.2,0,4,1.8,4,4v24c0,2.2-1.8,4-4,4h-32c-2.2,0-4-1.8-4-4v-24C2.1,3.5,3.9,1.7,6.1,1.7z"/>
	<path class="st1" d="M16.8,11.7c0-2.9,2.4-5.2,5.2-5.2s5.2,2.4,5.2,5.2v6v6c0,2.9-2.4,5.2-5.2,5.2s-5.2-2.4-5.2-5.2v-6V11.7z"/>
	<path class="st1" d="M2.1,12.2h14"/>
	<path class="st1" d="M2.1,23.2h14"/>
	<path class="st1" d="M28.1,23.2h14"/>
	<path class="st1" d="M28.1,12.2h14"/>
</g>
</svg>
