<svg height="470" viewBox="0 0 375 470" width="375" xmlns="http://www.w3.org/2000/svg" xmlns:xlink="http://www.w3.org/1999/xlink"><defs><linearGradient id="a" x1="54.769447%" x2="0%" y1="24.355981%" y2="61.455442%"><stop offset="0" stop-color="#fff"/><stop offset="1" stop-color="#dfe2e6"/></linearGradient><linearGradient id="b" x1="40.959264%" x2="25.733402%" y1="51.044137%" y2="47.744331%"><stop offset="0" stop-color="#fff" stop-opacity="0"/><stop offset="1" stop-color="#0d2034"/></linearGradient><linearGradient id="c" x1="15.208325%" x2="20.777329%" y1="49.397108%" y2="51.314828%"><stop offset="0" stop-color="#d9dddf"/><stop offset="1" stop-color="#929ba3"/></linearGradient><linearGradient id="d" x1="47.136719%" x2="51.778795%" y1="11.200465%" y2="73.387973%"><stop offset="0" stop-color="#b8e3ac"/><stop offset="1" stop-color="#5b944e"/></linearGradient><linearGradient id="e" x1="46.464885%" x2="48.251568%" y1="0%" y2="81.536818%"><stop offset="0" stop-color="#b8e3ac"/><stop offset="1" stop-color="#437737"/></linearGradient><linearGradient id="f" x1="43.278294%" x2="52.23014%" y1="22.592479%" y2="97.530947%"><stop offset="0" stop-color="#beebb2"/><stop offset="1" stop-color="#376b2c"/></linearGradient><linearGradient id="g" x1="50%" x2="50%" y1="0%" y2="100%"><stop offset="0" stop-color="#a2d095"/><stop offset="1" stop-color="#5e9252"/></linearGradient><linearGradient id="h" x1="77.415986%" x2="9.774756%" y1="50%" y2="50%"><stop offset="0" stop-color="#bdc5ce"/><stop offset="1" stop-color="#fff"/></linearGradient><linearGradient id="i" x1="40.75695%" x2="44.969302%" y1="50%" y2="45.751782%"><stop offset="0" stop-color="#e6ebf0"/><stop offset="1" stop-color="#b5c0cb"/></linearGradient><linearGradient id="j"><stop offset="0" stop-color="#eaedf2"/><stop offset="1" stop-color="#d4d9df"/></linearGradient><linearGradient id="k" x1="50%" x2="15.792529%" xlink:href="#j" y1="30.042164%" y2="54.473018%"/><linearGradient id="l" x1="57.055332%" x2="57.05533%" y1="43.622013%" y2="17.321279%"><stop offset="0" stop-color="#e5eaee"/><stop offset="1" stop-color="#c8d0d9"/></linearGradient><linearGradient id="m" x1="50%" x2="15.792529%" xlink:href="#j" y1="30.130198%" y2="54.453288%"/><linearGradient id="n" x1="58.387566%" x2="58.387566%" y1="50%" y2="109.078889%"><stop offset="0" stop-color="#fafafa"/><stop offset="1" stop-color="#d6d6d6"/></linearGradient><path id="o" d="m118.142252 40.7558813c-.518345-15.4363313-12.098337-25.9600751-21.1464056-26.9125044l-96.08300214-13.67678357v85.67442397l99.40904674-14.204312c10.801782-.9450335 18.338706-15.4444927 17.820361-30.880824z"/><linearGradient id="p" x1="43.827817%" x2="58.751425%" y1="-7.545449%" y2="85.095629%"><stop offset="0" stop-color="#e1edcf"/><stop offset="1" stop-color="#c0d6a2"/></linearGradient><linearGradient id="q" x1="103.163377%" x2="55.137367%" y1="50%" y2="-5.762279%"><stop offset="0" stop-color="#d6d6d6"/><stop offset="1" stop-color="#fff"/></linearGradient><linearGradient id="r" x1="29.603117%" x2="67.326377%" y1="11.388523%" y2="74.480671%"><stop offset="0" stop-color="#fff"/><stop offset="1" stop-color="#d0d5d9"/></linearGradient><linearGradient id="s" x1="14.651144%" x2="87.600531%" y1="66.409921%" y2="50%"><stop offset="0" stop-color="#d59582"/><stop offset="1" stop-color="#89635a"/></linearGradient><path id="t" d="m87.7753903 51.3927403c-11.2271105 7.5174208-23.8297846 20.459674-28.8670131 21.9329507-5.0372284 1.4732767-14.8314559 3.8891481-15.5813432 10.0021865-.7498872 6.1130384-9.6796399 7.9996806-17.6210253 9.0728407-7.9413854 1.0731602-23.98844248 1.3381381-25.31598138 5.2094641-1.3275389 3.8713257 25.84390188 3.8713257 35.47258138 3.8713257s32.9654312-.686791 35.9784486-2.0203965c3.0130174-1.3336053.8749239-9.1947991 3.3736648-16.133234 2.4987409-2.8144265 10.2342988-10.1112396 12.5606682-31.9351372z"/><filter id="u" height="209.8%" width="162.9%" x="-33.7%" y="-74.9%"><feOffset dx="-2" dy="-10" in="SourceAlpha" result="shadowOffsetOuter1"/><feGaussianBlur in="shadowOffsetOuter1" result="shadowBlurOuter1" stdDeviation="7.5"/><feColorMatrix in="shadowBlurOuter1" type="matrix" values="0 0 0 0 0.807778639   0 0 0 0 0.847246614   0 0 0 0 0.863520408  0 0 0 0.484771286 0"/></filter><linearGradient id="v" x1="44.910519%" x2="43.417993%" y1="49.545484%" y2="45.243523%"><stop offset="0" stop-color="#fff" stop-opacity="0"/><stop offset="1" stop-color="#788590"/></linearGradient><path id="w" d="m80.0916648 54.8335192c-31.6463002-4.5415809-57.5657377-17.0093533-77.75831248-37.403317l65.42702098-1 4.0580396-4.1524814c53.7899801 11.974539 81.2677171 20.9593291 82.4332101 26.9543704 1.748239 8.9925618-26.690508 22.4137995-74.1599582 15.601428z"/><linearGradient id="x" x1="113.099871%" x2="18.30716%" y1="46.697358%" y2="53.28678%"><stop offset="0" stop-color="#e1e7ed"/><stop offset="1" stop-color="#fff"/></linearGradient><linearGradient id="y" x1="82.171463%" x2="-11.28811%" y1="51.005102%" y2="48.583681%"><stop offset="0" stop-color="#fff"/><stop offset="1" stop-color="#d2d8de"/></linearGradient><ellipse id="z" cx="37" cy="7.5" rx="37" ry="7.5"/><linearGradient id="A" x1="50%" x2="17.990528%" y1="47.704082%" y2="51.184012%"><stop offset="0" stop-color="#f8fafb"/><stop offset="1" stop-color="#eff3f6"/></linearGradient><mask id="B" fill="#fff"><use fill="#fff" fill-rule="evenodd" xlink:href="#o"/></mask><mask id="C" fill="#fff"><use fill="#fff" fill-rule="evenodd" xlink:href="#z"/></mask></defs><g fill="none" fill-rule="evenodd"><path d="m0 0h375v470h-375z" fill="#eff1f3"/><path d="m0 0h375v217h-375z" fill="url(#a)"/><g transform="translate(-86 -27)"><path d="m334.490631 308.806478-305.116548-32.276062 92.511557-32.530416h187.172607" fill="url(#b)" fill-opacity=".5" opacity=".501466"/><g transform="matrix(-1 0 0 1 163 0)"><ellipse cx="87" cy="136" fill="url(#c)" rx="74" ry="12"/><path d="m46.8162366 182c7.0986682-12.030958 11.3272197-21.264228 12.6856546-27.699812 1.7246553-8.170552-2.4032568-16.940684-2.4032568-25.71722 0-10.682541 7.7371072-21.342393 3.7693919-30.8963962-2.0956365-5.0461583-6.7795664-11.6083489-14.0517897-19.6865718-7.4399148 9.0131007-12.1429342 15.5605988-14.109058 19.6424942-5.1616051 10.7160758 3.027114 17.6539238 3.027114 29.8381148 0 6.320157-3.9679008 14.606422-2.5790772 20.531556 1.8789253 8.016053 6.4325991 19.345332 13.6610212 33.987835z" fill="url(#d)" transform="matrix(.75470958 -.65605903 .65605903 .75470958 -73.881669 62.394499)"/><path d="m60.9794555 177c10.762497-18.162119 17.1735267-32.100806 19.2330892-41.816062 2.6148-12.334392-3.6436474-25.573917-3.6436474-38.8231117 0-16.1265281 11.7304528-32.218804 5.7148846-46.6416746-3.1772555-7.6177582-10.2786976-17.5241421-21.3043264-29.7191517-11.2798709 13.6063155-18.410255 23.4905193-21.3911525 29.6526114-7.8256593 16.1771526 4.5894955 26.650635 4.5894955 45.0440774 0 9.5410062-6.0158496 22.0500792-3.9102139 30.9947522 2.8486933 12.101158 9.7526502 29.204011 20.7118709 51.308559z" fill="url(#e)" transform="matrix(.89879405 -.43837115 .43837115 .89879405 -37.056598 36.490241)"/><path d="m82.4400799 158c12.7044615-14.949814 20.0064671-26.722255 21.9060161-35.317322 2.904592-13.142682-4.8084985-28.2801105-4.8084985-42.870375 0-16.0213594 6.5729175-35.0905418.6435295-49.430392-3.1782431-7.6863802-9.0919255-17.4803505-17.7410471-29.381911-9.7134724 12.6704804-16.0753544 22.1771678-19.0856459 28.5200619-7.574495 15.9599889 5.5500445 28.4132478 5.5500445 46.5212801 0 11.9376162-9.970718 29.17744-6.6788199 40.18151 3.1188801 10.425711 9.8570206 24.351427 20.2144213 41.777148z" fill="url(#f)" transform="matrix(.9998477 -.01745241 .01745241 .9998477 -1.374825 1.460658)"/><path d="m123.467242 172c13.021839-19.570674 19.532758-43.782513 19.532758-72.6355185 0-28.8530053-9.546642-54.9744992-28.639925-78.3644815-14.4068631 16.0506897-22.7247339 29.0539674-24.9536124 39.0098331-2.6392579 11.7889319 8.43805 27.0779393 8.43805 39.8066579 0 12.35209-6.209329 23.451836-3.723946 34.68647 2.2134498 10.005419 11.9956744 22.504432 29.3466754 37.497039z" fill="url(#g)" transform="matrix(.9612617 .27563736 -.27563736 .9612617 31.092648 -28.235687)"/><path d="m160.83193 135.815212-25.843701 124.804526c.007834.126418.011771.253177.011771.380262 0 .982513-.23534 1.945558-.687144 2.882451l-.232368 1.117549-.416955.000301c-5.079294 7.458579-24.044311 12.999699-46.663533 12.999699-22.6192224 0-41.5842388-5.54112-46.6635326-12.999699l-.4169557-.000301-.2338116-1.120545c-.4508617-.93595-.6857001-1.89799-.6857001-2.879455 0-.125743.0038547-.251168.0115245-.37626l-25.843455-124.808528c2.5844339 6.247231 34.6523949 11.184788 73.8319305 11.184788 39.179536 0 71.247497-4.937557 73.83193-11.184788z" fill="url(#h)"/></g></g><g transform="translate(253 217)"><path d="m.07774846.40447255h129.72895254v37.81423555z" fill="url(#i)"/><path d="m1.11082692.68497854v39.91634076l124.96035008 39.0321719v-49.9998109z" fill="url(#k)"/><g fill="#fff"><ellipse cx="16.889381" cy="25.481971" opacity=".6" rx="6.5" ry="10.5"/><path d="m33.4047483 38.5441446 92.4823617-1.9318517 2.991572 11.4478799-92.5517126-2.1906707z" opacity=".6" transform="matrix(.96592583 .25881905 -.25881905 .96592583 13.72226 -19.558449)"/></g></g><g transform="matrix(.99756405 -.06975647 .06975647 .99756405 291.364957 176.553153)"><path d="m1.07013785.57878403 124.96733615 10.93322517 2.769227 26.7066989z" fill="url(#l)"/><path d="m2.10321631.85929003-1.99238939 39.74202927 124.96035008 39.0321719v-49.9998109z" fill="url(#m)"/><g fill="#fff"><ellipse cx="16.567321" cy="24.572192" opacity=".6" rx="6.5" ry="10.5"/><path d="m31.2495919 39.1832481 92.5841761-1.9562952 2.995854 12.4749146-93.6237349-2.9344428z" opacity=".6" transform="matrix(.9612617 .27563736 -.27563736 .9612617 15.042275 -20.102531)"/></g></g><g transform="translate(26 237)"><path d="m86 104.713417 50.826348-8.713417 54.91252 11.685993-99.8205739 11.685993z" fill="#8692ac" fill-opacity=".2"/><path d="m0 97.2520534 58.3436899-2.2520534 53.0000281.5560207-83.5168385 10.2762673z" fill="#8692ac" fill-opacity=".2"/><path d="m3 88.8551745c4.89135461 7.8191473 10.2267249 12.6619825 16.0061108 14.5285045 20.0913422 6.488742 36.7840626 11.30196 50.0781611 14.439653 19.03028 4.491555 34.8118141 1.127129 47.3446031-10.093278 32.45854 3.043049 56.964455 3.043049 73.517745 0 5.060206-.930236 15.651833-3.593148 31.774879-7.9887361l-113.495259-28.7413179c-9.4370198 8.26042-19.4347106 13.4294903-29.993072 15.5072109-6.7125755 1.3209301-27.6826527 5.4540389-52.7102263 5.4540389-7.5869916 0-15.0946388-1.0353584-22.5229417-3.1060753z" fill="#fff"/><path d="m197.324532 117.868201c-35.149774 0-54.649048-13.023951-64.544184-18.9674172-9.895137-5.9434666-17.652339-8.9820155 10.224201-13.6596216s49.236312-5.8350051 85.107241-2.33673c35.870928 3.4982751 63.782872 5.9732061 54.957017 15.9963516-8.825855 10.0231452-50.5945 18.9674172-85.744275 18.9674172z" fill="#8b8b8b" opacity=".097626"/><g transform="translate(63)"><g transform="matrix(.9961947 .08715574 -.08715574 .9961947 44.19264 0)"><g transform="translate(26 3)"><use fill="url(#n)" xlink:href="#o"/><path d="m39.0320251 4.5368279 33.9847678 4.94183769c7.53289 8.09994911 12.0394555 18.66149901 13.5196965 31.68464951 1.4802411 13.0231506-2.1671013 25.7296328-10.9420271 38.1194467l-34.8619512 5.5742829c10.2211574-13.2821807 14.604511-27.4523614 13.1500608-42.5105422-1.4544501-15.0581808-6.4046324-27.6614057-14.8505468-37.8096746z" fill="url(#p)" mask="url(#B)"/></g><path d="m94.2791088 42.5820433c3.4506165 1.0391892 6.4670862 1.6679685 9.2935282 1.7423554 1.108247.0291671 2.140728-.0334058 3.089081-.1954157-1.233117 2.6886244-5.05636 4.6490218-9.5816778 4.6490218-5.2610621 0-9.5731978-2.6496759-9.9700524-6.0144482 2.4284455-.6120804 5.148006-.7901933 7.169121-.1815133zm2.8009314-6.8473158c5.5227628 0 9.9998458 2.919837 9.9998458 6.5216386 0 .0177083-.000108.0354001-.000324.0530752-2.958867.7543813-7.1826513.1482033-12.2989529-1.3926244-2.1618176-.651054-4.9278439-.5508378-7.4955843.0183598.9373107-2.9685688 4.9665122-5.2004492 9.7950154-5.2004492z" fill="#fff" transform="matrix(.89879405 .43837115 -.43837115 .89879405 28.350552 -38.287001)"/><ellipse cx="27.5" cy="47" fill="url(#q)" rx="27.5" ry="47"/><ellipse cx="27" cy="46.5" fill="url(#r)" rx="21" ry="39.5"/></g><use fill="#000" filter="url(#u)" xlink:href="#t"/><use fill="url(#s)" fill-rule="evenodd" xlink:href="#t"/><ellipse cx="40.5" cy="95.166667" fill="#c39078" rx="3.5" ry="1.166667"/><ellipse cx="60.5" cy="96.5" fill="#c39078" rx="1.5" ry="1"/><ellipse cx="16.5" cy="97.5" fill="#b38670" rx="1.5" ry="1"/></g></g><g transform="translate(250 341)"><g opacity=".096636"><use fill="url(#v)" fill-opacity=".36" xlink:href="#w"/><use fill="#000" fill-opacity=".1" xlink:href="#w"/></g><g><path d="m0 8h74l-2 9c-4.8771551 4-16.6625404 6-35.356156 6s-30.24156362-2-34.643844-6z" fill="url(#x)"/><use fill="url(#y)" xlink:href="#z"/><ellipse cx="37" cy="13.5" fill="url(#A)" mask="url(#C)" rx="35" ry="7.5"/></g></g></g></svg>