<svg height="470" viewBox="0 0 375 470" width="375" xmlns="http://www.w3.org/2000/svg" xmlns:xlink="http://www.w3.org/1999/xlink"><defs><path id="a" d="m0 0h292v364h-292z"/><linearGradient id="b"><stop offset="0" stop-opacity="0"/><stop offset="1"/></linearGradient><linearGradient id="c" x1="74.036124%" x2="14.039148%" xlink:href="#b" y1="76.110044%" y2="37.99439%"/><rect id="d" height="134.025126" rx="10" width="91.850746"/><filter id="e" height="118.7%" width="127.2%" x="-9.3%" y="-6.3%"><feOffset dx="4" dy="4" in="SourceAlpha" result="shadowOffsetOuter1"/><feGaussianBlur in="shadowOffsetOuter1" result="shadowBlurOuter1" stdDeviation="3.5"/><feColorMatrix in="shadowBlurOuter1" type="matrix" values="0 0 0 0 0   0 0 0 0 0   0 0 0 0 0  0 0 0 0.170006793 0"/></filter><linearGradient id="f" x1="-6.282798%" x2="90.52256%" xlink:href="#b" y1="50%" y2="50%"/><mask id="g" fill="#fff"><use fill="#fff" fill-rule="evenodd" xlink:href="#a"/></mask></defs><g fill="none" fill-rule="evenodd"><path d="m292-45h292v515.726562l-292-151.726562z" fill="#5041ab"/><g transform="translate(0 -45)"><use fill="#5545b7" xlink:href="#a"/><g mask="url(#g)"><g transform="translate(50 185)"><path d="m6.92553548 133.693926 82.42700422-130.74753524 90.9711923 65.37376734v110.5528319h-106.9183069z" fill="url(#c)" fill-opacity=".2" fill-rule="evenodd"/><g fill="none"><g><use fill="#000" filter="url(#e)" xlink:href="#d"/><use fill="#302c48" fill-rule="evenodd" xlink:href="#d"/></g><g fill-rule="evenodd" transform="translate(17 38)"><path d="m46.8283582 0c2.4852814 0 4.5 2.01471863 4.5 4.5l.000626 6.5140403c3.9442614 4.9244757 6.3028566 11.1712899 6.3028566 17.9683718 0 6.797193-2.3586724 13.0441004-6.3030502 17.9686135l-.0004324 6.5137985c0 2.4852814-2.0147186 4.5-4.5 4.5h-35.1243781c-2.48528137 0-4.5-2.0147186-4.5-4.5l-.001253-5.444531c-4.48274748-5.0739481-7.2027271-11.7386247-7.2027271-19.037881 0-7.2992564 2.71997962-13.963933 7.2027271-19.03788106l.001253-5.44453104c0-2.48528137 2.01471863-4.5 4.5-4.5z" fill="#fff"/><g fill="#302c48"><rect height="22.487437" rx="3.151741" width="6.303483" x="18.119403" y="17.768844"/><rect height="22.487437" rx="3.151741" width="6.303483" x="33.427861" y="17.768844"/></g></g></g></g></g></g><g transform="matrix(.98768834 .15643447 -.15643447 .98768834 176.896321 320)"><ellipse cx="37.393264" cy="50.122961" fill="url(#f)" fill-opacity=".2" rx="25" ry="4.5" transform="matrix(.98480775 -.17364818 .17364818 .98480775 -8.135673 7.254753)"/><path d="m64.2180715 32.6459599c42.7349255-.5899683 33.8997532 19.4518847 88.2621135 19.4518847 36.241573 0 67.69672 14.6754424 94.365439 44.0263272" stroke="#000" stroke-linecap="round" stroke-linejoin="round" stroke-opacity=".10409" stroke-width="8"/><path d="m63.9542841 24.5880187c42.7349249-.5899683 33.8997532 19.4518847 88.2621139 19.4518847 36.241573 0 67.696719 14.6754424 94.365438 44.0263272" stroke="#ffeeac" stroke-linecap="round" stroke-linejoin="round" stroke-width="8"/><path d="m39.8907146 0c9.7365924 0 18.0901757 6.17333896 21.6560823 14.9704698l5.4532031 1.4241946c1.3169178 2.6776369 1.9753767 5.2325736 1.9753767 7.66481s-.6584589 4.8551112-1.9753767 7.2686244l-5.1235007 1.84292c-3.3586608 9.2513629-11.9354329 15.8289812-21.9857847 15.8289812l-1.3278436.0006914c-3.3699621.0033802-7.6501533.0191546-12.8405736.047323l-.7222974-49.0480144z" fill="#fff"/><ellipse cx="25.5" cy="24.5" fill="#7768d3" rx="10.5" ry="24.5"/><g fill="#fff"><rect height="7" rx="3.5" width="28" y="13"/><rect height="7" rx="3.5" width="28" y="29"/></g></g></g></svg>