<svg height="470" viewBox="0 0 375 470" width="375" xmlns="http://www.w3.org/2000/svg" xmlns:xlink="http://www.w3.org/1999/xlink"><radialGradient id="a" cx="50%" cy="107.997175%" gradientTransform="matrix(-.7455281 .66117039 -.66647419 -.73959519 1.592538 1.548129)" r="66.691035%"><stop offset="0" stop-color="#83a2ac"/><stop offset="1" stop-color="#3e4e64"/></radialGradient><linearGradient id="b" x1="21.338318%" x2="45.679097%" y1="28.341534%" y2="59.518345%"><stop offset="0" stop-color="#fdfeff"/><stop offset="1" stop-color="#ced6dc"/></linearGradient><linearGradient id="c"><stop offset="0" stop-color="#abb9c5"/><stop offset="1" stop-color="#eff1f3"/></linearGradient><linearGradient id="d" x1="31.857097%" x2="-3.447883%" xlink:href="#c" y1="100%" y2="68.435129%"/><linearGradient id="e"><stop offset="0" stop-color="#dfe6ec"/><stop offset="1" stop-color="#bcc9d4"/></linearGradient><linearGradient id="f" x1="125.053569%" x2="18.389604%" xlink:href="#e" y1="72.617276%" y2="27.382724%"/><linearGradient id="g" x1="125.053569%" x2="18.389604%" xlink:href="#e" y1="100%" y2="0%"/><linearGradient id="h" x1="32.769205%" x2="50%" y1="-35.042988%" y2="100%"><stop offset="0" stop-color="#ffbaba"/><stop offset="1" stop-color="#ff8ea7"/></linearGradient><linearGradient id="i" x1="66.565901%" x2="16.948684%" xlink:href="#c" y1="76.536423%" y2="42.691101%"/><linearGradient id="j" x1="125.053569%" x2="18.389604%" xlink:href="#e" y1="56.57096%" y2="43.42904%"/><linearGradient id="k" x1="35.390445%" x2="100%" y1="49.511951%" y2="50%"><stop offset="0" stop-color="#fff" stop-opacity=".417969"/><stop offset="1" stop-color="#fff"/></linearGradient><g fill="none" fill-rule="evenodd"><path d="m0 0h375v333.5 333.5h-375z" fill="#5b7392"/><path d="m95 28.1396136h374v366.0103584c-64.924241 18.728666-125.927797 13.519136-183.010667-15.62859-57.082869-29.147725-120.745981-23.938195-190.989333 15.62859z" fill="url(#a)" transform="matrix(-1 0 0 1 469 -27)"/><g transform="matrix(.65605903 .75470958 -.75470958 .65605903 179.922319 92.000673)"><path d="m0 96h92.5660881c3.6854993 0 7.2711836 1.1976965 10.2168409 3.4126472l2.775966 2.0873528c4.747375 3.56973 10.526251 5.5 16.465993 5.5h124.975112v117h-147c-55.228475 0-100-44.771525-100-100z" fill="url(#b)"/><path d="m131 107h115.593319v-87.6169658c0-10.49341025 8.50659-19.00000001 19-19.00000001h83.406681v223.61696581h-218z" fill="url(#d)"/><path d="m271.815683 15.8183554h97c4.418278 0 8 3.581722 8 8v60c0 4.418278-3.581722 8-8 8h-97c-4.418278 0-8-3.581722-8-8v-60c0-4.418278 3.581722-8 8-8z" fill="url(#f)" opacity=".6"/><g fill="#b0beca"><circle cx="146" cy="125" r="5"/><circle cx="146" cy="145" r="5"/><circle cx="146" cy="165" r="5"/><circle cx="146" cy="185" r="5"/><circle cx="146" cy="205" r="5"/></g><circle cx="59.936354" cy="147.471743" fill="url(#g)" opacity=".6" r="27"/><path d="m32 20h4v76h-4z" fill="#a0b3ce"/><path d="m32 20 4.3517704.0600134 25.0871294 21.2346611-10.1246951 8.0551708 8.0578675 20.7981894-27.3720722-22.1480347z" fill="url(#h)"/><path d="m155.422954 46h91.577046v61h-135l32.227257-54.6072966c2.338014-3.9616355 6.595603-6.3927034 11.195697-6.3927034z" fill="url(#i)"/><path d="m160.759396 61h65.270603c2.209139 0 4 1.790861 4 4v25c0 2.209139-1.790861 4-4 4h-80.024702c-2.209139 0-4-1.790861-4-4 0-.7151142.191711-1.4171527.55517-2.0330143l14.754099-25c.719389-1.2189648 2.029416-1.9669857 3.44483-1.9669857z" fill="url(#j)" opacity=".6"/></g><g transform="translate(17 50)"><g fill="#fff"><circle cx="267.5" cy="130.5" r="1.5"/><circle cx="20.5" cy="1.5" r="1.5"/><circle cx="186" cy="30" r="1"/><circle cx="309.5" cy="1.5" r="1"/><circle cx="73.5" cy="57.5" r="1"/><circle cx="278.5" cy="62.5" r="1"/><circle cx=".5" cy="255.5" r="1"/><circle cx="324" cy="167" r="1"/><circle cx="17" cy="167" r="1"/></g><path d="m93.1527259 39.5591742c53.5211191-6.6556326 100.0599971 7.7226226 100.0599971 7.9890972 0 .2664747-1.516561.0845438-2.156651 0-.64009-.0845437-55.31944-13.4054215-97.9033461-7.9890972z" fill="url(#k)" transform="matrix(.81915204 .57357644 -.57357644 .81915204 50.411811 -74.395897)"/></g><path d="m0 320.728614h375v357.270315c-63.009821-46.658894-124.378942-57.324118-184.107365-31.995672-59.728422 25.328445-123.3593003 31.73654-190.892635 19.224286z" fill="#54739d" transform="matrix(-1 0 0 -1 375 998.727542)"/><path d="m0 336.732418h375v323.721592c-63.009821-24.293078-124.378942-23.775395-184.107365 1.553051-59.728422 25.328445-123.3593003 20.569874-190.892635-14.275714z" fill="#040404" fill-opacity=".103038" transform="matrix(-1 0 0 -1 375 1014.731346)"/></g></svg>