<?xml version="1.0" encoding="utf-8"?>
<!-- Generator: Adobe Illustrator 24.2.0, SVG Export Plug-In . SVG Version: 6.00 Build 0)  -->
<svg version="1.1" id="Layer_1" xmlns="http://www.w3.org/2000/svg" xmlns:xlink="http://www.w3.org/1999/xlink" x="0px" y="0px"
	 viewBox="0 0 375 470" style="enable-background:new 0 0 375 470;" xml:space="preserve">
<style type="text/css">
	.st0{fill-rule:evenodd;clip-rule:evenodd;fill:#262334;}
	.st1{fill-rule:evenodd;clip-rule:evenodd;fill:url(#SVGID_1_);}
	.st2{fill-rule:evenodd;clip-rule:evenodd;fill:url(#SVGID_2_);fill-opacity:0.12;}
	.st3{fill:#3E3961;}
	.st4{fill-rule:evenodd;clip-rule:evenodd;fill:#4F5B71;}
	.st5{fill-rule:evenodd;clip-rule:evenodd;fill:#CACACA;}
	.st6{fill-rule:evenodd;clip-rule:evenodd;fill:#606C83;}
	.st7{fill-rule:evenodd;clip-rule:evenodd;fill:#FFFFFF;}
	.st8{fill-rule:evenodd;clip-rule:evenodd;fill:url(#SVGID_3_);}
	.st9{opacity:0.4;}
	.st10{filter:url(#e);}
	.st11{fill-rule:evenodd;clip-rule:evenodd;}
	.st12{filter:url(#g);}
	.st13{filter:url(#i);}
	.st14{filter:url(#k);}
	.st15{opacity:0.5;}
	.st16{filter:url(#m);}
	.st17{filter:url(#o);}
	.st18{opacity:0.2;}
	.st19{filter:url(#q);}
	.st20{filter:url(#s);}
	.st21{fill-rule:evenodd;clip-rule:evenodd;fill:#1A1825;}
	.st22{fill:#1F1C2F;}
	.st23{filter:url(#Adobe_OpacityMaskFilter);}
	.st24{opacity:0.1009;mask:url(#z_1_);fill-rule:evenodd;clip-rule:evenodd;fill:#221F33;enable-background:new    ;}
	.st25{fill:url(#SVGID_4_);}
	.st26{fill-rule:evenodd;clip-rule:evenodd;fill:#484271;}
	.st27{filter:url(#Adobe_OpacityMaskFilter_1_);}
	.st28{mask:url(#A_1_);fill:none;stroke:#FFFFFF;stroke-width:3;stroke-opacity:0.2158;}
	.st29{filter:url(#Adobe_OpacityMaskFilter_2_);}
	.st30{mask:url(#A_2_);fill:none;stroke:#FFFFFF;stroke-width:3;stroke-opacity:0.2158;}
	.st31{filter:url(#Adobe_OpacityMaskFilter_3_);}
	.st32{mask:url(#A_3_);fill:none;stroke:#FFFFFF;stroke-width:3;stroke-opacity:0.2158;}
	.st33{filter:url(#Adobe_OpacityMaskFilter_4_);}
	.st34{mask:url(#A_4_);fill:none;stroke:#FFFFFF;stroke-width:3;stroke-opacity:0.2158;}
	.st35{filter:url(#Adobe_OpacityMaskFilter_5_);}
	.st36{mask:url(#A_5_);fill:none;stroke:#FFFFFF;stroke-width:3;stroke-opacity:0.2158;}
	.st37{fill:url(#x_8_);}
	.st38{filter:url(#Adobe_OpacityMaskFilter_6_);}
	.st39{mask:url(#B_1_);fill:none;stroke:#FFFFFF;stroke-width:3;stroke-opacity:0.2158;}
	.st40{filter:url(#Adobe_OpacityMaskFilter_7_);}
	.st41{mask:url(#B_2_);fill:none;stroke:#FFFFFF;stroke-width:3;stroke-opacity:0.2158;}
	.st42{filter:url(#Adobe_OpacityMaskFilter_8_);}
	.st43{mask:url(#B_3_);fill:none;stroke:#FFFFFF;stroke-width:3;stroke-opacity:0.2158;}
	.st44{filter:url(#Adobe_OpacityMaskFilter_9_);}
	.st45{mask:url(#B_4_);fill:none;stroke:#FFFFFF;stroke-width:3;stroke-opacity:0.2158;}
	.st46{filter:url(#Adobe_OpacityMaskFilter_10_);}
	.st47{mask:url(#B_5_);fill:none;stroke:#FFFFFF;stroke-width:3;stroke-opacity:0.2158;}
	.st48{filter:url(#Adobe_OpacityMaskFilter_11_);}
	.st49{mask:url(#B_6_);fill:none;stroke:#FFFFFF;stroke-width:3;stroke-opacity:0.2158;}
	.st50{fill-rule:evenodd;clip-rule:evenodd;fill:#C05555;}
	.st51{fill-rule:evenodd;clip-rule:evenodd;fill:#232130;}
	.st52{fill-rule:evenodd;clip-rule:evenodd;fill:url(#SVGID_5_);}
	.st53{opacity:0.3;fill-rule:evenodd;clip-rule:evenodd;fill:#867EBE;enable-background:new    ;}
</style>
<filter  height="550%" id="s" width="550%" x="-225%" y="-225%">
	<feOffset  dx="0" dy="0" in="SourceAlpha" result="shadowOffsetOuter1"></feOffset>
	<feGaussianBlur  in="shadowOffsetOuter1" result="shadowBlurOuter1" stdDeviation="1.5"></feGaussianBlur>
	<feColorMatrix  in="shadowBlurOuter1" type="matrix" values="0 0 0 0 1   0 0 0 0 1   0 0 0 0 1  0 0 0 1 0"></feColorMatrix>
</filter>
<filter  height="550%" id="q" width="550%" x="-225%" y="-225%">
	<feOffset  dx="0" dy="0" in="SourceAlpha" result="shadowOffsetOuter1"></feOffset>
	<feGaussianBlur  in="shadowOffsetOuter1" result="shadowBlurOuter1" stdDeviation="1.5"></feGaussianBlur>
	<feColorMatrix  in="shadowBlurOuter1" type="matrix" values="0 0 0 0 1   0 0 0 0 1   0 0 0 0 1  0 0 0 1 0"></feColorMatrix>
</filter>
<filter  height="1000%" id="o" width="550%" x="-225%" y="-450%">
	<feOffset  dx="0" dy="0" in="SourceAlpha" result="shadowOffsetOuter1"></feOffset>
	<feGaussianBlur  in="shadowOffsetOuter1" result="shadowBlurOuter1" stdDeviation="1.5"></feGaussianBlur>
	<feColorMatrix  in="shadowBlurOuter1" type="matrix" values="0 0 0 0 1   0 0 0 0 1   0 0 0 0 1  0 0 0 1 0"></feColorMatrix>
</filter>
<filter  height="1000%" id="m" width="550%" x="-225%" y="-450%">
	<feOffset  dx="0" dy="0" in="SourceAlpha" result="shadowOffsetOuter1"></feOffset>
	<feGaussianBlur  in="shadowOffsetOuter1" result="shadowBlurOuter1" stdDeviation="1.5"></feGaussianBlur>
	<feColorMatrix  in="shadowBlurOuter1" type="matrix" values="0 0 0 0 1   0 0 0 0 1   0 0 0 0 1  0 0 0 1 0"></feColorMatrix>
</filter>
<filter  height="1000%" id="k" width="1000%" x="-450%" y="-450%">
	<feOffset  dx="0" dy="0" in="SourceAlpha" result="shadowOffsetOuter1"></feOffset>
	<feGaussianBlur  in="shadowOffsetOuter1" result="shadowBlurOuter1" stdDeviation="1.5"></feGaussianBlur>
	<feColorMatrix  in="shadowBlurOuter1" type="matrix" values="0 0 0 0 1   0 0 0 0 1   0 0 0 0 1  0 0 0 1 0"></feColorMatrix>
</filter>
<filter  height="1000%" id="i" width="1000%" x="-450%" y="-450%">
	<feOffset  dx="0" dy="0" in="SourceAlpha" result="shadowOffsetOuter1"></feOffset>
	<feGaussianBlur  in="shadowOffsetOuter1" result="shadowBlurOuter1" stdDeviation="1.5"></feGaussianBlur>
	<feColorMatrix  in="shadowBlurOuter1" type="matrix" values="0 0 0 0 1   0 0 0 0 1   0 0 0 0 1  0 0 0 1 0"></feColorMatrix>
</filter>
<filter  height="1000%" id="g" width="1000%" x="-450%" y="-450%">
	<feOffset  dx="0" dy="0" in="SourceAlpha" result="shadowOffsetOuter1"></feOffset>
	<feGaussianBlur  in="shadowOffsetOuter1" result="shadowBlurOuter1" stdDeviation="1.5"></feGaussianBlur>
	<feColorMatrix  in="shadowBlurOuter1" type="matrix" values="0 0 0 0 1   0 0 0 0 1   0 0 0 0 1  0 0 0 1 0"></feColorMatrix>
</filter>
<filter  height="1000%" id="e" width="1000%" x="-450%" y="-450%">
	<feOffset  dx="0" dy="0" in="SourceAlpha" result="shadowOffsetOuter1"></feOffset>
	<feGaussianBlur  in="shadowOffsetOuter1" result="shadowBlurOuter1" stdDeviation="1.5"></feGaussianBlur>
	<feColorMatrix  in="shadowBlurOuter1" type="matrix" values="0 0 0 0 1   0 0 0 0 1   0 0 0 0 1  0 0 0 1 0"></feColorMatrix>
</filter>
<g>
	<path class="st0" d="M0,0h375v470H0V0z"/>
	
		<linearGradient id="SVGID_1_" gradientUnits="userSpaceOnUse" x1="37.886" y1="1450.7677" x2="38.5242" y2="1451.0898" gradientTransform="matrix(375 0 0 -397 -14212 576203)">
		<stop  offset="0" style="stop-color:#262334"/>
		<stop  offset="1" style="stop-color:#302D43"/>
	</linearGradient>
	<path class="st1" d="M0-53h375v397H0V-53z"/>
	<g transform="translate(-27 12)">
		
			<linearGradient id="SVGID_2_" gradientUnits="userSpaceOnUse" x1="64.9202" y1="1406.425" x2="65.4728" y2="1406.427" gradientTransform="matrix(242.3516 0 0 -28.0388 -15714.4609 39801.582)">
			<stop  offset="0" style="stop-color:#000000;stop-opacity:0"/>
			<stop  offset="1" style="stop-color:#000000"/>
		</linearGradient>
		<path class="st2" d="M217.4,375.3l-217,4.4v-25.1l208.3,12.9L217.4,375.3z"/>
		<path class="st3" d="M129.2,190.7c29.6,13.6,43.9,17.1,57,16.8l1.9-10c-7.8-0.4-21.2-6.6-47.2-25.6L129.2,190.7z"/>
		<g transform="translate(188 123)">
			<path class="st4" d="M-18,76.7l35.1-2.6v11.6L-18,82.4c-0.9-0.1-1.6-0.9-1.6-1.8v-2.1C-19.6,77.6-18.9,76.8-18,76.7z"/>
			<g transform="matrix(-.05233596 .99862953 -.99862953 -.05233596 38.645359 61.948967)">
				<path class="st5" d="M23.9,23.3l3.2,0.8c0.8,0.2,1.2,1,1,1.7l0,0c-0.2,0.8-1,1.2-1.7,1L23.2,26c-0.8-0.2-1.2-1-1-1.7l0,0
					C22.4,23.6,23.1,23.1,23.9,23.3z"/>
				<path class="st5" d="M23.8,25.8l3.2,0.8c0.8,0.2,1.2,1,1,1.7s-1,1.2-1.7,1l-3.2-0.8c-0.8-0.2-1.2-1-1-1.7
					C22.3,26.1,23.1,25.6,23.8,25.8z"/>
				<path class="st5" d="M23.8,28.3l3.2,0.8c0.8,0.2,1.2,1,1,1.7l0,0c-0.2,0.8-1,1.2-1.7,1L23.1,31c-0.8-0.2-1.2-1-1-1.7l0,0
					C22.3,28.5,23,28.1,23.8,28.3z"/>
				<path class="st5" d="M23.7,30.8l3.2,0.8c0.8,0.2,1.2,1,1,1.7l0,0c-0.2,0.8-1,1.2-1.7,1l-3.2-0.8c-0.8-0.2-1.2-1-1-1.7l0,0
					C22.2,31,23,30.6,23.7,30.8z"/>
			</g>
			<path class="st6" d="M17.7,72l8.3-1.3v17.9l-8.3-1.3c-0.9-0.1-1.5-0.9-1.5-1.8V73.8C16.2,72.9,16.8,72.1,17.7,72z"/>
			<ellipse class="st7" cx="26.5" cy="79.8" rx="4" ry="10"/>
			
				<linearGradient id="SVGID_3_" gradientUnits="userSpaceOnUse" x1="-122.5342" y1="1310.3965" x2="-123.4296" y2="1310.3965" gradientTransform="matrix(146.6211 0 0 -123.6963 18123.6035 162173.5)">
				<stop  offset="0" style="stop-color:#302C48;stop-opacity:0"/>
				<stop  offset="1" style="stop-color:#F1FFFF"/>
			</linearGradient>
			<path class="st8" d="M157.5,26.9L26.2,69.8v20.1l131.3,47.8"/>
			<g class="st9">
				<g class="st10">
					<circle id="d_2_" class="st11" cx="106.2" cy="58.6" r="0.9"/>
				</g>
				<g>
					<circle id="d_1_" class="st7" cx="106.2" cy="58.6" r="0.9"/>
				</g>
			</g>
			<g class="st12">
				<circle id="f_2_" class="st11" cx="99.9" cy="77.4" r="0.9"/>
			</g>
			<g>
				<circle id="f_1_" class="st7" cx="99.9" cy="77.4" r="0.9"/>
			</g>
			<g class="st9">
				<g class="st13">
					<circle id="h_2_" class="st11" cx="122.3" cy="89.1" r="0.9"/>
				</g>
				<g>
					<circle id="h_1_" class="st7" cx="122.3" cy="89.1" r="0.9"/>
				</g>
			</g>
			<g class="st14">
				<circle id="j_2_" class="st11" cx="73" cy="67.6" r="0.9"/>
			</g>
			<g>
				<circle id="j_1_" class="st7" cx="73" cy="67.6" r="0.9"/>
			</g>
			<g class="st15">
				<g class="st16">
					<ellipse id="l_2_" class="st11" cx="77.1" cy="90" rx="0.9" ry="0.9"/>
				</g>
				<g>
					<ellipse id="l_1_" class="st7" cx="77.1" cy="90" rx="0.9" ry="0.9"/>
				</g>
			</g>
			<g class="st17">
				<ellipse id="n_2_" class="st11" cx="143.3" cy="71.2" rx="0.9" ry="0.9"/>
			</g>
			<g>
				<ellipse id="n_1_" class="st7" cx="143.3" cy="71.2" rx="0.9" ry="0.9"/>
			</g>
			<g class="st18">
				<g class="st19">
					<circle id="p_2_" class="st11" cx="141.5" cy="112.8" r="0.9"/>
				</g>
				<g>
					<circle id="p_1_" class="st7" cx="141.5" cy="112.8" r="0.9"/>
				</g>
			</g>
			<g class="st20">
				<circle id="r_2_" class="st11" cx="54.7" cy="78.8" r="0.9"/>
			</g>
			<g>
				<circle id="r_1_" class="st7" cx="54.7" cy="78.8" r="0.9"/>
			</g>
		</g>
		<path class="st21" d="M24.5,348.2c-1.2,2.6,0.7,8.1,4.1,10.5c3.3,2.4,3.2-3,12.3,1.1c6.1,2.7,6.3,7.4,0.7,13.9l-28.6-12.8
			c-2.2-4.3-2.7-7.6-1.3-9.8s2.6-4.6,3.7-7L24.5,348.2z"/>
		<path class="st21" d="M190.8,357.1c0,2.9,4.4,5,8.5,5.9c4.1,0.8,8.8-2.3,15.3-1.8c4.3,0.3,5.2,4.4,2.8,12.3h-32.1
			c-3.9-3-5.7-5.8-5.3-8.4c0.3-2.6,0.5-5.3,0.5-7.9H190.8z"/>
		<g transform="translate(14 179)">
			<g transform="matrix(.98768834 .15643447 -.15643447 .98768834 15.108083 -8.966394)">
				<path id="t_1_" class="st22" d="M48,25.9c-1.3,9.2-0.2,12.3,0.4,21.9c2.4,37.5-1.3,48-10.4,54.9c-16.5,12.5-35,37.1-38.9,66.8
					l11.9,1.9c3.1-23.7,44-49.7,54.4-57.7c13-16.4,32.1-48.1,46.2-65.8L48,25.9z"/>
			</g>
			<defs>
				<filter id="Adobe_OpacityMaskFilter" filterUnits="userSpaceOnUse" x="65.7" y="61.1" width="31.2" height="50.1">
					<feColorMatrix  type="matrix" values="1 0 0 0 0  0 1 0 0 0  0 0 1 0 0  0 0 0 1 0"/>
				</filter>
			</defs>
			<mask maskUnits="userSpaceOnUse" x="65.7" y="61.1" width="31.2" height="50.1" id="z_1_">
				<g class="st23">
					<path id="t_2_" class="st7" d="M47.7-142.9c0.1,9.3,1.7,12.2,3.8,21.6c8.2,36.7,6.2,47.6-1.6,55.8
						c-14.3,14.9-28.7,42.1-28,72.1H34c-0.6-23.9,35.6-56,44.7-65.5c10.3-18.3,24.2-52.5,35.4-72.2L47.7-142.9z"/>
				</g>
			</mask>
			<path class="st24" d="M81.3,66c0,12-14.1,42.6-15.5,45.1c-0.9,1.7,9.4-11.5,31.1-39.5C86.5,59.8,81.3,58,81.3,66z"/>
		</g>
		
			<linearGradient id="SVGID_4_" gradientUnits="userSpaceOnUse" x1="64.7877" y1="1435.4309" x2="65.0694" y2="1435.3441" gradientTransform="matrix(140.8126 0 0 -159.9993 -9040.6309 229932.9844)">
			<stop  offset="0" style="stop-color:#221F33"/>
			<stop  offset="1" style="stop-color:#1F1D2D"/>
		</linearGradient>
		<path class="st25" d="M163.4,286.9c1,3.5,2.1,11.3,2.8,18.2c1.6,14.5,8.3,30.5,13.7,53.4h12.6c-0.2-28.4-2.9-50.1-2.9-65.7
			c0-17.2,0-25.7-12.6-34.4c-3.2-2.2-30.7-29.2-42-34c-8.2-3.5-14.9,0.1-20.1-2.9c-25.3-3.2-41.2-5.2-47.8-6.2
			c-2.9-0.4,3.7,13.6,14.4,22.6s22.7,13.9,52.2,29.6c13.8,7.4,26.5,16.3,29.2,17.7C163,285.6,163.2,286.2,163.4,286.9L163.4,286.9z"
			/>
		<g transform="translate(62 68)">
			<g>
				<path id="v_1_" class="st26" d="M-6.4,144.9l80.8,11.2C68.8,118,83,90.9,117.2,74.7c5.5-2.6,10.3-10,4.1-17.8
					c-19.5-22.7-27.7-24.3-34.5-23.3C37.9,60.7,6.9,97.9-6.4,144.9z"/>
			</g>
			<g>
				<defs>
					<filter id="Adobe_OpacityMaskFilter_1_" filterUnits="userSpaceOnUse" x="-6.1" y="120.6" width="88.1" height="19.8">
						<feColorMatrix  type="matrix" values="1 0 0 0 0  0 1 0 0 0  0 0 1 0 0  0 0 0 1 0"/>
					</filter>
				</defs>
				<mask maskUnits="userSpaceOnUse" x="-6.1" y="120.6" width="88.1" height="19.8" id="A_1_">
					<g class="st27">
						<path id="v_2_" class="st7" d="M-37.8,73.3L43,84.5C37.4,46.4,51.7,19.2,85.9,3c5.5-2.6,10.3-10,4.1-17.8
							C70.5-37.5,62.3-39.1,55.5-38.1C6.6-10.9-24.5,26.2-37.8,73.3z"/>
					</g>
				</mask>
				<path class="st28" d="M-5.6,122c15.6,5.6,44.8,11.3,87.4,16.9"/>
				<defs>
					<filter id="Adobe_OpacityMaskFilter_2_" filterUnits="userSpaceOnUse" x="9.6" y="96.8" width="73.2" height="27.3">
						<feColorMatrix  type="matrix" values="1 0 0 0 0  0 1 0 0 0  0 0 1 0 0  0 0 0 1 0"/>
					</filter>
				</defs>
				<mask maskUnits="userSpaceOnUse" x="9.6" y="96.8" width="73.2" height="27.3" id="A_2_">
					<g class="st29">
						<path id="v_3_" class="st7" d="M-37.8,73.3L43,84.5C37.4,46.4,51.7,19.2,85.9,3c5.5-2.6,10.3-10,4.1-17.8
							C70.5-37.5,62.3-39.1,55.5-38.1C6.6-10.9-24.5,26.2-37.8,73.3z"/>
					</g>
				</mask>
				<path class="st30" d="M10.7,97.8c4.4,4.6,28.3,12.9,71.7,24.8"/>
				<defs>
					<filter id="Adobe_OpacityMaskFilter_3_" filterUnits="userSpaceOnUse" x="21.9" y="77.5" width="65.5" height="27.6">
						<feColorMatrix  type="matrix" values="1 0 0 0 0  0 1 0 0 0  0 0 1 0 0  0 0 0 1 0"/>
					</filter>
				</defs>
				<mask maskUnits="userSpaceOnUse" x="21.9" y="77.5" width="65.5" height="27.6" id="A_3_">
					<g class="st31">
						<path id="v_4_" class="st7" d="M-37.8,73.3L43,84.5C37.4,46.4,51.7,19.2,85.9,3c5.5-2.6,10.3-10,4.1-17.8
							C70.5-37.5,62.3-39.1,55.5-38.1C6.6-10.9-24.5,26.2-37.8,73.3z"/>
					</g>
				</mask>
				<path class="st32" d="M22.6,78.9c32.5,16.4,54.2,24.6,64.8,24.8"/>
				<defs>
					<filter id="Adobe_OpacityMaskFilter_4_" filterUnits="userSpaceOnUse" x="54.3" y="56.2" width="50.6" height="38.6">
						<feColorMatrix  type="matrix" values="1 0 0 0 0  0 1 0 0 0  0 0 1 0 0  0 0 0 1 0"/>
					</filter>
				</defs>
				<mask maskUnits="userSpaceOnUse" x="54.3" y="56.2" width="50.6" height="38.6" id="A_4_">
					<g class="st33">
						<path id="v_5_" class="st7" d="M-37.8,73.3L43,84.5C37.4,46.4,51.7,19.2,85.9,3c5.5-2.6,10.3-10,4.1-17.8
							C70.5-37.5,62.3-39.1,55.5-38.1C6.6-10.9-24.5,26.2-37.8,73.3z"/>
					</g>
				</mask>
				<path class="st34" d="M55.4,57.3c22.6,24.1,39.1,36.1,49.5,36"/>
				<defs>
					<filter id="Adobe_OpacityMaskFilter_5_" filterUnits="userSpaceOnUse" x="87.4" y="57.1" width="50.6" height="38.6">
						<feColorMatrix  type="matrix" values="1 0 0 0 0  0 1 0 0 0  0 0 1 0 0  0 0 0 1 0"/>
					</filter>
				</defs>
				<mask maskUnits="userSpaceOnUse" x="87.4" y="57.1" width="50.6" height="38.6" id="A_5_">
					<g class="st35">
						<path id="v_6_" class="st7" d="M-37.8,73.3L43,84.5C37.4,46.4,51.7,19.2,85.9,3c5.5-2.6,10.3-10,4.1-17.8
							C70.5-37.5,62.3-39.1,55.5-38.1C6.6-10.9-24.5,26.2-37.8,73.3z"/>
					</g>
				</mask>
				<path class="st36" d="M88.5,58.2c22.6,24.1,39.1,36.1,49.5,36"/>
			</g>
		</g>
		<g transform="translate(135 72)">
			<g transform="matrix(.75470958 .65605903 -.65605903 .75470958 53.064812 -25.022763)">
				
					<linearGradient id="x_8_" gradientUnits="userSpaceOnUse" x1="-62.6689" y1="1358.1771" x2="-63.1834" y2="1357.9972" gradientTransform="matrix(73.0444 63.4965 45.9769 -52.8904 -57790.7891 75922.8359)">
					<stop  offset="0" style="stop-color:#7F76A9"/>
					<stop  offset="1" style="stop-color:#484271"/>
				</linearGradient>
				<path id="x_1_" class="st37" d="M51.3,58.7L5.6,57.6L34.1,118c3.8,5.6,7.1,9.6,9.9,11.8c5.8,4.8,9.1,3.8,13.7-0.3
					c6.2-5.5,9.3-14.9,22.1-51.8l-10.3-4.1c-4.6,13.6-12.2,19.1-16,28.1c-1.6,3.8,1.8,8.2,0.6,10.5c-3.9-12-5.5-22.8-5-32.4
					C49.4,73.9,50.1,66.8,51.3,58.7z"/>
			</g>
			<g>
				<defs>
					<filter id="Adobe_OpacityMaskFilter_6_" filterUnits="userSpaceOnUse" x="23" y="81" width="29" height="28.7">
						<feColorMatrix  type="matrix" values="1 0 0 0 0  0 1 0 0 0  0 0 1 0 0  0 0 0 1 0"/>
					</filter>
				</defs>
				<mask maskUnits="userSpaceOnUse" x="23" y="81" width="29" height="28.7" id="B_1_">
					<g class="st38">
						<path id="x_2_" class="st7" d="M-65.2-17.8l-35.2,29.1l61.1,27c6.6,1.7,11.7,2.5,15.3,2.4c7.5-0.2,9.4-3.1,10.2-9.2
							c1.1-8.2-2.8-17.3-17.4-53.6l-10.5,3.7c5.5,13.2,3.3,22.4,6.4,31.7c1.3,3.9,6.7,5,7.3,7.5C-38.8,14.3-47.2,7.3-53-0.3
							C-56.7-5.1-60.7-10.9-65.2-17.8z"/>
					</g>
				</mask>
				<path class="st39" d="M24.5,109.4c1.5-7.2,14.7-25.1,27.3-27"/>
				<defs>
					<filter id="Adobe_OpacityMaskFilter_7_" filterUnits="userSpaceOnUse" x="16.3" y="51.8" width="68.3" height="38.3">
						<feColorMatrix  type="matrix" values="1 0 0 0 0  0 1 0 0 0  0 0 1 0 0  0 0 0 1 0"/>
					</filter>
				</defs>
				<mask maskUnits="userSpaceOnUse" x="16.3" y="51.8" width="68.3" height="38.3" id="B_2_">
					<g class="st40">
						<path id="x_3_" class="st7" d="M-65.2-17.8l-35.2,29.1l61.1,27c6.6,1.7,11.7,2.5,15.3,2.4c7.5-0.2,9.4-3.1,10.2-9.2
							c1.1-8.2-2.8-17.3-17.4-53.6l-10.5,3.7c5.5,13.2,3.3,22.4,6.4,31.7c1.3,3.9,6.7,5,7.3,7.5C-38.8,14.3-47.2,7.3-53-0.3
							C-56.7-5.1-60.7-10.9-65.2-17.8z"/>
					</g>
				</mask>
				<path class="st41" d="M17.8,90.2c0-9.6,8.5-32.5,66.7-36.8"/>
				<defs>
					<filter id="Adobe_OpacityMaskFilter_8_" filterUnits="userSpaceOnUse" x="27" y="103.8" width="26.9" height="26.3">
						<feColorMatrix  type="matrix" values="1 0 0 0 0  0 1 0 0 0  0 0 1 0 0  0 0 0 1 0"/>
					</filter>
				</defs>
				<mask maskUnits="userSpaceOnUse" x="27" y="103.8" width="26.9" height="26.3" id="B_3_">
					<g class="st42">
						<path id="x_4_" class="st7" d="M-65.2-17.8l-35.2,29.1l61.1,27c6.6,1.7,11.7,2.5,15.3,2.4c7.5-0.2,9.4-3.1,10.2-9.2
							c1.1-8.2-2.8-17.3-17.4-53.6l-10.5,3.7c5.5,13.2,3.3,22.4,6.4,31.7c1.3,3.9,6.7,5,7.3,7.5C-38.8,14.3-47.2,7.3-53-0.3
							C-56.7-5.1-60.7-10.9-65.2-17.8z"/>
					</g>
				</mask>
				<path class="st43" d="M28.4,129.4c2.6-5.6,15.5-20.2,25-24.2"/>
				<defs>
					<filter id="Adobe_OpacityMaskFilter_9_" filterUnits="userSpaceOnUse" x="51.1" y="104" width="16.8" height="32.9">
						<feColorMatrix  type="matrix" values="1 0 0 0 0  0 1 0 0 0  0 0 1 0 0  0 0 0 1 0"/>
					</filter>
				</defs>
				<mask maskUnits="userSpaceOnUse" x="51.1" y="104" width="16.8" height="32.9" id="B_4_">
					<g class="st44">
						<path id="x_5_" class="st7" d="M-65.2-17.8l-35.2,29.1l61.1,27c6.6,1.7,11.7,2.5,15.3,2.4c7.5-0.2,9.4-3.1,10.2-9.2
							c1.1-8.2-2.8-17.3-17.4-53.6l-10.5,3.7c5.5,13.2,3.3,22.4,6.4,31.7c1.3,3.9,6.7,5,7.3,7.5C-38.8,14.3-47.2,7.3-53-0.3
							C-56.7-5.1-60.7-10.9-65.2-17.8z"/>
					</g>
				</mask>
				<path class="st45" d="M66.8,135.8c-4.4-4.4-13.7-21.5-14.2-31.8"/>
				<defs>
					<filter id="Adobe_OpacityMaskFilter_10_" filterUnits="userSpaceOnUse" x="52.9" y="94.6" width="23.6" height="20.9">
						<feColorMatrix  type="matrix" values="1 0 0 0 0  0 1 0 0 0  0 0 1 0 0  0 0 0 1 0"/>
					</filter>
				</defs>
				<mask maskUnits="userSpaceOnUse" x="52.9" y="94.6" width="23.6" height="20.9" id="B_5_">
					<g class="st46">
						<path id="x_6_" class="st7" d="M-65.2-17.8l-35.2,29.1l61.1,27c6.6,1.7,11.7,2.5,15.3,2.4c7.5-0.2,9.4-3.1,10.2-9.2
							c1.1-8.2-2.8-17.3-17.4-53.6l-10.5,3.7c5.5,13.2,3.3,22.4,6.4,31.7c1.3,3.9,6.7,5,7.3,7.5C-38.8,14.3-47.2,7.3-53-0.3
							C-56.7-5.1-60.7-10.9-65.2-17.8z"/>
					</g>
				</mask>
				<path class="st47" d="M75.7,114.2c-5.2-3.3-21-13.7-21.3-19.6"/>
				<defs>
					<filter id="Adobe_OpacityMaskFilter_11_" filterUnits="userSpaceOnUse" x="59.9" y="81.5" width="29.4" height="10.6">
						<feColorMatrix  type="matrix" values="1 0 0 0 0  0 1 0 0 0  0 0 1 0 0  0 0 0 1 0"/>
					</filter>
				</defs>
				<mask maskUnits="userSpaceOnUse" x="59.9" y="81.5" width="29.4" height="10.6" id="B_6_">
					<g class="st48">
						<path id="x_7_" class="st7" d="M-65.2-17.8l-35.2,29.1l61.1,27c6.6,1.7,11.7,2.5,15.3,2.4c7.5-0.2,9.4-3.1,10.2-9.2
							c1.1-8.2-2.8-17.3-17.4-53.6l-10.5,3.7c5.5,13.2,3.3,22.4,6.4,31.7c1.3,3.9,6.7,5,7.3,7.5C-38.8,14.3-47.2,7.3-53-0.3
							C-56.7-5.1-60.7-10.9-65.2-17.8z"/>
					</g>
				</mask>
				<path class="st49" d="M88.4,88.8c-8.7,5.6-25.4-2.5-27.2-6.6"/>
			</g>
		</g>
		<path class="st7" d="M212.5,67L224,86.5h-5.8l-5.8,19.6L188,94.8L176.3,107l-16.7-13l6.9-7.5V71l8.2-11.5L212.5,67z"/>
		<path class="st50" d="M165.6,81.2l10.8,6.3l3.6-6.3c-5.5-4.3-6.3-8.5-2.6-12.6c3.7-4.1-0.2-5.3-11.8-3.6V81.2z"/>
		<path class="st26" d="M184.8,65.5l6.8,13.2l29.6,2.7L218,75l-10.4-1.4l9.6-0.5l-6.4-10.6L184.8,65.5z"/>
		<path class="st51" d="M202.5,45.7c3.2,0.5,6.2,2,8.5,4.4l15.4,15.7l0.2,0l14.5,11.4l-78.7-12.5l1.3-8l-0.4-0.1l0.3-1.8
			c1.3-8.3,9.1-14,17.4-12.7L202.5,45.7z"/>
		
			<radialGradient id="SVGID_5_" cx="75.467" cy="1447.5302" r="1.0246" gradientTransform="matrix(-53.9878 72.5059 87.1956 64.9257 -121953.9141 -99417.9375)" gradientUnits="userSpaceOnUse">
			<stop  offset="0" style="stop-color:#3B394C"/>
			<stop  offset="1" style="stop-color:#1C1A25"/>
		</radialGradient>
		<path class="st52" d="M137.7,148.6c12-8.3,28-22.4,42.6-21.7c6.8,0.3,13.6,3.9,16.9,5.5c4,2,3.8,2.1,5.7,1.8
			c3.4-0.6,3.5-4.9,3.1-7.3c-0.7-4.1-11.9-12.2-17.4-17.1c-14.4-13.1-41.8-27.1-63.2-30.8C96,74,59.6,102.8,72.4,139.5
			S120.2,160.7,137.7,148.6z"/>
		<path class="st7" d="M196.1,133c0.4,1.2,1.9,5.5,2.7,6.1c0.5,0.4,2.1,1.7,4.8,3.9l0.9,2.2l8.1,3.4l1.6-6.3c-0.4-4.2-1-7.5-2-9.9
			c-1-2.4-2.8-5.5-5.5-9.2c-0.4-0.6-0.6-0.9-0.7-0.9c-1.7,0.3-2,0.8-2.3,1c-0.2,0.1,0.5,1,0.3,1c-0.2,0-0.6-0.8-0.7-0.8
			c-1,0.3-1.9,0.7-2.1,0.9s0.6,1,0.4,1.1c-0.3,0.1-0.4-0.9-0.8-0.8s-2,0.7-2.1,1c-0.1,0.2,0.5,0.9,0.3,0.9c-0.3,0.1-0.6-0.7-0.9-0.7
			c-0.5,0-2,0.6-2.1,1.2c0,0.6,3.9,7.3,3.7,7.8c-0.1,0.5-2.1-4-3-4.2C195.8,130.4,195.7,131.9,196.1,133L196.1,133z"/>
		<path class="st53" d="M139.6,181.7c0,0,3.7-29.3,10.5-40.4c2.4,3.5,1,14.7,5.2,17.9C147.7,164.4,139.6,181.7,139.6,181.7z"/>
	</g>
</g>
</svg>
