<?xml version="1.0" encoding="UTF-8"?>
<svg width="99px" height="384px" viewBox="0 0 99 384" version="1.1" xmlns="http://www.w3.org/2000/svg" xmlns:xlink="http://www.w3.org/1999/xlink">
    <title>Group 8</title>
    <defs>
        <filter color-interpolation-filters="auto" id="filter-1">
            <feColorMatrix in="SourceGraphic" type="matrix" values="0 0 0 0 0.728770 0 0 0 0 0.728770 0 0 0 0 0.728770 0 0 0 1.000000 0"></feColorMatrix>
        </filter>
    </defs>
    <g id="Checkout" stroke="none" stroke-width="1" fill="none" fill-rule="evenodd" opacity="0.304315476">
        <g id="Confirmation-alternative-2" transform="translate(-138.000000, -319.000000)">
            <g id="Group-16" transform="translate(138.000000, 259.000000)">
                <g id="Group-8" transform="translate(0.000000, 65.315459)" filter="url(#filter-1)">
                    <g>
                        <path d="M86,343.512141 C86,360.270612 72.2074542,374.012141 55,374.012141 C37.7925458,374.012141 24,360.270612 24,343.512141 C24,326.75367 37.7925458,313.012141 55,313.012141 C72.2074542,313.012141 86,326.75367 86,343.512141 Z" id="Path-Copy" stroke="#4275F2" stroke-width="8"></path>
                        <circle id="Oval-Copy" fill="#F22710" fill-rule="nonzero" cx="12" cy="293.017541" r="12"></circle>
                        <rect id="Rectangle-Copy" fill="#F0AD4E" fill-rule="nonzero" transform="translate(69.000000, 108.684541) rotate(-15.000000) translate(-69.000000, -108.684541) " x="49" y="88.6845412" width="40" height="40"></rect>
                        <polygon id="Path-Copy-3" fill="#00AE69" fill-rule="nonzero" transform="translate(37.543073, 202.150461) rotate(17.000000) translate(-37.543073, -202.150461) " points="37.5430728 184.150461 58.3280728 220.150461 16.7580728 220.150461"></polygon>
                        <polyline id="Path-Copy-2" stroke="#D9534F" stroke-width="8" stroke-linecap="round" stroke-linejoin="round" transform="translate(55.500000, 14.517541) rotate(11.000000) translate(-55.500000, -14.517541) " points="18 7.0175412 33 22.0175412 48 7.0175412 63 22.0175412 78 7.0175412 93 22.0175412"></polyline>
                    </g>
                </g>
            </g>
        </g>
    </g>
</svg>