<svg height="470" viewBox="0 0 375 470" width="375" xmlns="http://www.w3.org/2000/svg" xmlns:xlink="http://www.w3.org/1999/xlink"><defs><linearGradient id="a" x1="56.958655%" x2="56.958658%" y1=".486597%" y2="57.650602%"><stop offset="0" stop-color="#dae0e6"/><stop offset="1" stop-color="#eff1f3"/></linearGradient><linearGradient id="b"><stop offset="0" stop-color="#536db5" stop-opacity="0"/><stop offset="1" stop-color="#0e284b"/></linearGradient><linearGradient id="c" x1="50%" x2="96.179424%" xlink:href="#b" y1="51.546695%" y2="48.951272%"/><linearGradient id="d" x1="0%" x2="61.780758%" xlink:href="#b" y1="56.707957%" y2="54.223763%"/><path id="e" d="m99.5306557 22.3752523c.2722895.2209425.2722895.6481152.0066577 1.2869312-6.2856268 27.7363221-22.797226 41.6044832-49.5347977 41.6044832s-43.12149482-13.8681611-49.15176943-41.6044832c-.03792908-.4128277-.02898375-.7774809.02683599-1.0939596.65288151 5.8751167 12.83204654-5.7173514 24.08982794-1.7936217 8.3674615 2.9163523 13.7904615 11.4349216 25.2266197 11.4349216 17.4026184 0 32.7010704-10.2034989 41.4859797-12.7836302 4.8337184-1.419665 7.6954437 6.5482056 7.8506461 2.9493587z"/><linearGradient id="f" x1="50%" x2="50%" y1="0%" y2="100%"><stop offset="0" stop-color="#e1e6ea" stop-opacity="0"/><stop offset="1" stop-color="#d6dbe2" stop-opacity=".678952"/></linearGradient><linearGradient id="g" x1="50%" x2="50%" y1="35.673023%" y2="100%"><stop offset="0" stop-color="#d6d9e4"/><stop offset="1" stop-color="#d0d5e0" stop-opacity="0"/></linearGradient><mask id="h" fill="#fff"><use fill="#fff" fill-rule="evenodd" xlink:href="#e"/></mask></defs><g fill="none" fill-rule="evenodd"><path d="m0 0h375v470h-375z" fill="#eff1f3"/><g transform="translate(-105 179)"><path d="m196.617224 20.2212439c54.755029-.5058578 116.987777 43.0608248 151.296359 53.6168482 24.239073 7.4578488 71.646924 16.3250663 142.223555 26.6016529-133.195506 60.989658-233.888406 91.262508-302.078702 90.818551-68.190295-.443957-107.758984-43.102699-118.7060664-127.9762273 49.7579654-28.383079 92.1795834-42.7366873 127.2648544-43.0608248z" fill="#ccd3dc" opacity=".715466"/><path d="m0 110.671385c116.631457 180.659093 212.847539 270.988639 288.648246 270.988639 75.800708 0 179.335429-94.814154 310.604163-284.442462-57.149598-41.1368812-118.469439-71.7395851-183.959522-91.80811195-72.194884-22.12312015-129.872081 32.35741455-249.359287 84.87260195-31.826086 13.987714-87.1372859 20.784158-165.9336 20.389333z" fill="url(#a)"/></g><g transform="matrix(-1 0 0 1 446 254)"><path d="m229.741593 112.769457-229.1991945 8.241313 112.5995975-25.610491 100.855506 8.659668z" fill="url(#c)" fill-opacity=".21"/><path d="m163.413131 54.2032062c-3.951031 6.1403462-5.268041 13.2239797-3.951031 21.2509003s1.893202 17.9498228 1.728576 29.7687065h6.548063l8.174016-53.6724417c-6.188542-2.3396629-10.355083-3.281923-12.499624-2.8267803-2.144542.4551428-2.144542 2.2816812 0 5.4796152z" fill="#9ea4b8"/><path d="m202.606725 54.2952873c-3.951031 6.1403463-5.268041 13.2239797-3.951031 21.2509003s1.893202 17.9498228 1.728576 29.7687064h6.548064l8.174015-53.6724415-15.16383-7.1854369z" fill="#9ea4b8" transform="matrix(.97437006 -.22495105 .22495105 .97437006 -11.549656 48.401877)"/><g fill="#302c48"><path d="m161 105 8.012055-2.418085 5.387169 2.418085 7.584036.78994c1.218397.126906 2.237248.981839 2.573778 2.159694l.442962 1.550366c.416589 1.458062-.427691 2.977767-1.885754 3.394356-.245304.070087-.49918.105644-.754301.105644h-17.359945c-2.209139 0-4-1.790861-4-4z"/><path d="m207 105 8.012055-2.418085 5.387169 2.418085 7.584036.78994c1.218397.126906 2.237248.981839 2.573778 2.159694l.442962 1.550366c.416589 1.458062-.427691 2.977767-1.885754 3.394356-.245304.070087-.49918.105644-.754301.105644h-17.359945c-2.209139 0-4-1.790861-4-4z"/><path d="m159 53.717306v-53.717306h47.950986l6.155496 53.717306h-21.887584l-6.739612-27.6576823-4.748659 27.6576823z"/></g><path d="m179.702077 53.7926944 1.183091-38.3030199 3.508693 10.6376656z" fill="#3b3c45" opacity=".195313"/></g><path d="m16.7935878 130.974585c-1.4157065.321275-1.2346008-1.51035-1.9352499-2.500193-1.619257-2.287609-.2891447-8.469756 0-9.362601.9749985-3.01068 2.4968353-7.044161 3.8684258-5.851794 1.1814146 2.02125-1.0974596 3.989869-.996194 5.851794.022155.407354.996194 1.948193 2.1776086.974381 1.2269414-1.01134-1.1935984 10.452472-3.1145905 10.888413z" fill="#9ea4b8" transform="matrix(-.98162718 -.190809 -.190809 .98162718 227.279965 72.515433)"/><g transform="matrix(-1 0 0 1 187 67)"><rect fill="#cacbd5" height="108" rx="1.517857" width="3.035714" x=".364285"/><path d="m3.64285714 105c0-.994113-.81548135-1.8-1.82142857-1.8s-1.82142857.805887-1.82142857 1.8v12.022515l.00526352.136743c.40948219 5.311356 3.23220429 8.300127 8.08430679 8.300127 4.85145919 0 7.67590569-2.987846 8.08995859-8.298593.0772771-.991175-.6731491-1.85659-1.6761237-1.932958s-1.8786916.66523-1.9559687 1.656405c-.2758726 3.538412-1.6340344 4.975146-4.45786619 4.975146-2.80546985 0-4.16214846-1.417843-4.44671317-4.90725z" fill="#302c48" fill-rule="nonzero"/></g><g transform="matrix(-1 0 0 1 319 118)"><path d="m36 118.511268c-10.8588863-10.247556-11.1210282-9.954144-15.8873298-16.384322-2.2753469-3.0696514-4.8915777-5.4716624-4.7486391-5.8329316 2.1183644-5.3540466 9.4181382-11.3315745 20.6359689-25.7899417l-6.7454134-12.5040727c-16.3753938 15.6716874-21.32776945 27.3713527-23.81707767 33.662939-.60322869 1.5246265-1.66514613 4.2929183-1.39405097 6.0836414 1.19385889 7.8860526 11.86723404 16.9969416 31.21908784 27.2534196z" fill="#9ea4b8" fill-rule="nonzero" transform="matrix(.9945219 .10452846 -.10452846 .9945219 9.673916 -1.589323)"/><path d="m134.728555 65.6314083c.594613-1.7502017 0-5.5882663.594613-6.4595785 1.130881-.6104802 2.348335 1.2150907 3.652362 5.4767129.676827 6.2410189-.316555 10.2481793-2.980145 12.021481s-3.995385 1.7733017-3.995385 0c-1.952798-6.6236053-2.162646-9.8438756-.629543-9.6608111 2.299654.2745969 3.076432 0 3.358098-1.3778043z" fill="#9ea4b8"/><path d="m116 113.511268c-10.792319-10.247556-11.052854-9.954144-15.789938-16.3843219-2.2613984-3.0696515-4.8615913-5.4716625-4.7195289-5.8329317 2.1053784-5.3540466 9.3604029-11.3315745 20.5094669-25.7899417l-6.704063-12.5040727c-16.2750098 15.6716874-21.1970266 27.3713527-23.6710749 33.662939-3.2397667 8.2388333 6.0416022 20.751596 29.6422049 33.337061z" fill="#9ea4b8" fill-rule="nonzero" transform="matrix(.1391731 -.99026807 .99026807 .1391731 .854915 173.983468)"/><path d="m57.7433265 13s-.2154615 3.8649467 2.5139224 6.0164903c3.0473688 2.4022077 6.4582093 5.1786177 7.2453618 6.1702785.9947786 1.2532296.4973893 1.8798444-1.4921678 1.8798444l1.4921678 12.1395476-12.412555 5.5168321 2.6532708 10.2770071h-14.8709886l-1.8723379-10.2770071c2.8857512-12.8657069 5.2376712-21.0208949 7.05576-24.4655639 3.6953561-7.0014615 9.6875665-7.257429 9.6875665-7.257429z" fill="#9ea4b8"/><g fill="#302c48"><path d="m43.2306064 46c6.344452 0 7.2278662-7.4791714 10.9370614-12.3358652 2.8229754-3.696308 2.8323322-6.8239181 2.8323322-11.9554979 0-11.87412216-2.5963382-18.7086369-13.7693936-18.7086369s-20.2306064 9.6258779-20.2306064 21.5 13.2019983 16.303075 20.2306064 21.5z"/><ellipse cx="48" cy="6.5" rx="7" ry="6.5"/><ellipse cx="40.5" cy="4" rx="4.5" ry="4"/><ellipse cx="33" cy="10.5" rx="7" ry="6.5"/><ellipse cx="29" cy="17.5" rx="7" ry="6.5"/><circle cx="34.5" cy="5.5" r="3.5"/><circle cx="54.5" cy="7.5" r="3.5"/><circle cx="56.5" cy="12.5" r="3.5"/></g><ellipse cx="56" cy="28.5" fill="#9ea4b8" rx="4" ry="4.5"/><path d="m10 75.3655598 21.3197361-19.7009468c6.8395471-2.4430753 12.4843066-3.664613 16.9342785-3.664613h9.864667c2.788522 0 8.1654267 1.2215377 16.130714 3.664613l15.7506044 19.7009468-9.9977508 14.1454367-10.9358114-14.1454367 12.197048 67.5219102c-8.2555514 2.741687-15.9704861 4.11253-23.1448042 4.11253s-16.1072999-1.331315-26.7989455-3.993944v-62.8301689l-7.8757728 9.3351094z" fill="#fff"/><path d="m77 116-13-44c3.5592333 1.1044456 5.4372443 2.364976 5.634033 3.7815912s2.6521111 14.8227515 7.365967 40.2184088z" fill="#deeaf4" opacity=".549819"/></g><path d="m108.108586 66.5622423c-3.561349 9.3655929-20.3540722 16.006965-39.2257734 15.3685752s-32.4189965-4.9226754-35.5541967-14.5061024c-2.0901335-6.3889513 11.7589883-10.7135857 41.5473654-12.9739032 23.7766158 1.7786046 34.8541507 5.8157481 33.2326047 12.1114304z" fill="url(#d)" fill-opacity=".21" transform="matrix(-1 0 0 1 195.386932 271)"/><g transform="matrix(.96592583 .25881905 -.25881905 .96592583 71.923417 271.952246)"><use fill="#686b89" xlink:href="#e"/><path d="m4.92208262 31.3830021c8.42860108 21.4694408 22.38794628 32.6363374 41.87803558 33.5006898-12.1950082-5.8645304-14.584782-14.4477504-15.8729799-25.3958787-.8587987-7.2987522-9.5271506-10.0003559-26.00505568-8.1048111z" fill="#606484" mask="url(#h)"/><path d="m51.7168729 31.3830021c8.4286012 22.0345202 22.3879464 33.4839564 41.8780356 34.3483088-12.1950082-5.8645303-14.5847819-15.2953694-15.8729799-26.2434977-.8587987-7.2987522-9.5271506-10.0003559-26.0050557-8.1048111z" fill="#606484" mask="url(#h)" transform="matrix(-1 0 0 1 145.311782 0)"/><path d="m48.4925373 40.6857143 16.096403 2.3184376 14.9450851-7.7712878 12.4532419-2.1003649 6.6992999-11.094404-8.8999568-5.8805088-8.4230494-9.19247441-16.4005405-2.44763061-15.6197369-4.51748138-16.4972104 4.65230511-16.4448296 1.71739433-8.39620665 9.31869626-8.00503695 6.3496995 3.96366667 8.668497 10.90277413 3.2219658 15.8464445 8.5226994z" fill="#373855" transform="translate(.850746 .847619)"/></g><g fill="url(#f)"><g transform="matrix(.92718385 -.37460659 .37460659 .92718385 -189.000758 -308.737131)"><path d="m1.89940602 450 1.71361314 46.035967c.03890139 1.04508-.77676776 1.923821-1.82184804 1.962722-.02346891.000874-.04695204.001311-.0704372.001311-1.03805378 0-1.87956264-.841509-1.87956264-1.879563 0-.027968.00062425-.055932.00187228-.083872z"/><path d="m1.89940602 522 1.71361314 46.035967c.03890139 1.04508-.77676776 1.923821-1.82184804 1.962722-.02346891.000874-.04695204.001311-.0704372.001311-1.03805378 0-1.87956264-.841509-1.87956264-1.879563 0-.027968.00062425-.055932.00187228-.083872z"/><path d="m1.89940602 592 1.71361314 46.035967c.03890139 1.04508-.77676776 1.923821-1.82184804 1.962722-.02346891.000874-.04695204.001311-.0704372.001311-1.03805378 0-1.87956264-.841509-1.87956264-1.879563 0-.027968.00062425-.055932.00187228-.083872z"/><path d="m37.899406 372 1.7136132 46.035967c.0389014 1.04508-.7767678 1.923821-1.8218481 1.962722-.0234689.000874-.046952.001311-.0704372.001311-1.0380538 0-1.8795626-.841509-1.8795626-1.879563 0-.027968.0006242-.055932.0018723-.083872z"/><path d="m37.899406 438 1.7136132 46.035967c.0389014 1.04508-.7767678 1.923821-1.8218481 1.962722-.0234689.000874-.046952.001311-.0704372.001311-1.0380538 0-1.8795626-.841509-1.8795626-1.879563 0-.027968.0006242-.055932.0018723-.083872z"/><path d="m37.899406 502 1.7136132 46.035967c.0389014 1.04508-.7767678 1.923821-1.8218481 1.962722-.0234689.000874-.046952.001311-.0704372.001311-1.0380538 0-1.8795626-.841509-1.8795626-1.879563 0-.027968.0006242-.055932.0018723-.083872z"/><path d="m37.899406 574 1.7136132 46.035967c.0389014 1.04508-.7767678 1.923821-1.8218481 1.962722-.0234689.000874-.046952.001311-.0704372.001311-1.0380538 0-1.8795626-.841509-1.8795626-1.879563 0-.027968.0006242-.055932.0018723-.083872z"/><path d="m73.899406 332 1.7136132 46.035967c.0389014 1.04508-.7767678 1.923821-1.8218481 1.962722-.0234689.000874-.046952.001311-.0704372.001311-1.0380538 0-1.8795626-.841509-1.8795626-1.879563 0-.027968.0006242-.055932.0018723-.083872z"/><path d="m73.899406 398 1.7136132 46.035967c.0389014 1.04508-.7767678 1.923821-1.8218481 1.962722-.0234689.000874-.046952.001311-.0704372.001311-1.0380538 0-1.8795626-.841509-1.8795626-1.879563 0-.027968.0006242-.055932.0018723-.083872z"/><path d="m73.899406 462 1.7136132 46.035967c.0389014 1.04508-.7767678 1.923821-1.8218481 1.962722-.0234689.000874-.046952.001311-.0704372.001311-1.0380538 0-1.8795626-.841509-1.8795626-1.879563 0-.027968.0006242-.055932.0018723-.083872z"/><path d="m73.899406 534 1.7136132 46.035967c.0389014 1.04508-.7767678 1.923821-1.8218481 1.962722-.0234689.000874-.046952.001311-.0704372.001311-1.0380538 0-1.8795626-.841509-1.8795626-1.879563 0-.027968.0006242-.055932.0018723-.083872z"/><path d="m73.899406 604 1.7136132 46.035967c.0389014 1.04508-.7767678 1.923821-1.8218481 1.962722-.0234689.000874-.046952.001311-.0704372.001311-1.0380538 0-1.8795626-.841509-1.8795626-1.879563 0-.027968.0006242-.055932.0018723-.083872z"/><path d="m113.899406 344 1.713613 46.035967c.038902 1.04508-.776768 1.923821-1.821848 1.962722-.023469.000874-.046952.001311-.070437.001311-1.038054 0-1.879563-.841509-1.879563-1.879563 0-.027968.000625-.055932.001873-.083872z"/><path d="m113.899406 408 1.713613 46.035967c.038902 1.04508-.776768 1.923821-1.821848 1.962722-.023469.000874-.046952.001311-.070437.001311-1.038054 0-1.879563-.841509-1.879563-1.879563 0-.027968.000625-.055932.001873-.083872z"/><path d="m113.899406 480 1.713613 46.035967c.038902 1.04508-.776768 1.923821-1.821848 1.962722-.023469.000874-.046952.001311-.070437.001311-1.038054 0-1.879563-.841509-1.879563-1.879563 0-.027968.000625-.055932.001873-.083872z"/><path d="m113.899406 550 1.713613 46.035967c.038902 1.04508-.776768 1.923821-1.821848 1.962722-.023469.000874-.046952.001311-.070437.001311-1.038054 0-1.879563-.841509-1.879563-1.879563 0-.027968.000625-.055932.001873-.083872z"/><path d="m149.899406 380 1.713613 46.035967c.038902 1.04508-.776768 1.923821-1.821848 1.962722-.023469.000874-.046952.001311-.070437.001311-1.038054 0-1.879563-.841509-1.879563-1.879563 0-.027968.000625-.055932.001873-.083872z"/><path d="m149.899406 452 1.713613 46.035967c.038902 1.04508-.776768 1.923821-1.821848 1.962722-.023469.000874-.046952.001311-.070437.001311-1.038054 0-1.879563-.841509-1.879563-1.879563 0-.027968.000625-.055932.001873-.083872z"/><path d="m149.899406 522 1.713613 46.035967c.038902 1.04508-.776768 1.923821-1.821848 1.962722-.023469.000874-.046952.001311-.070437.001311-1.038054 0-1.879563-.841509-1.879563-1.879563 0-.027968.000625-.055932.001873-.083872z"/><path d="m185.899406 398 1.713613 46.035967c.038902 1.04508-.776768 1.923821-1.821848 1.962722-.023469.000874-.046952.001311-.070437.001311-1.038054 0-1.879563-.841509-1.879563-1.879563 0-.027968.000625-.055932.001873-.083872z"/><path d="m185.899406 462 1.713613 46.035967c.038902 1.04508-.776768 1.923821-1.821848 1.962722-.023469.000874-.046952.001311-.070437.001311-1.038054 0-1.879563-.841509-1.879563-1.879563 0-.027968.000625-.055932.001873-.083872z"/><path d="m185.899406 534 1.713613 46.035967c.038902 1.04508-.776768 1.923821-1.821848 1.962722-.023469.000874-.046952.001311-.070437.001311-1.038054 0-1.879563-.841509-1.879563-1.879563 0-.027968.000625-.055932.001873-.083872z"/><path d="m185.899406 604 1.713613 46.035967c.038902 1.04508-.776768 1.923821-1.821848 1.962722-.023469.000874-.046952.001311-.070437.001311-1.038054 0-1.879563-.841509-1.879563-1.879563 0-.027968.000625-.055932.001873-.083872z"/><path d="m223.899406 422 1.713613 46.035967c.038902 1.04508-.776768 1.923821-1.821848 1.962722-.023469.000874-.046952.001311-.070437.001311-1.038054 0-1.879563-.841509-1.879563-1.879563 0-.027968.000625-.055932.001873-.083872z"/><path d="m223.899406 494 1.713613 46.035967c.038902 1.04508-.776768 1.923821-1.821848 1.962722-.023469.000874-.046952.001311-.070437.001311-1.038054 0-1.879563-.841509-1.879563-1.879563 0-.027968.000625-.055932.001873-.083872z"/><path d="m223.899406 564 1.713613 46.035967c.038902 1.04508-.776768 1.923821-1.821848 1.962722-.023469.000874-.046952.001311-.070437.001311-1.038054 0-1.879563-.841509-1.879563-1.879563 0-.027968.000625-.055932.001873-.083872z"/><path d="m261.899406 448 1.713613 46.035967c.038902 1.04508-.776768 1.923821-1.821848 1.962722-.023469.000874-.046952.001311-.070437.001311-1.038054 0-1.879563-.841509-1.879563-1.879563 0-.027968.000625-.055932.001873-.083872z"/><path d="m261.899406 520 1.713613 46.035967c.038902 1.04508-.776768 1.923821-1.821848 1.962722-.023469.000874-.046952.001311-.070437.001311-1.038054 0-1.879563-.841509-1.879563-1.879563 0-.027968.000625-.055932.001873-.083872z"/><path d="m261.899406 590 1.713613 46.035967c.038902 1.04508-.776768 1.923821-1.821848 1.962722-.023469.000874-.046952.001311-.070437.001311-1.038054 0-1.879563-.841509-1.879563-1.879563 0-.027968.000625-.055932.001873-.083872z"/><path d="m297.899406 416 1.713613 46.035967c.038902 1.04508-.776768 1.923821-1.821848 1.962722-.023469.000874-.046952.001311-.070437.001311-1.038054 0-1.879563-.841509-1.879563-1.879563 0-.027968.000625-.055932.001873-.083872z"/><path d="m297.899406 488 1.713613 46.035967c.038902 1.04508-.776768 1.923821-1.821848 1.962722-.023469.000874-.046952.001311-.070437.001311-1.038054 0-1.879563-.841509-1.879563-1.879563 0-.027968.000625-.055932.001873-.083872z"/><path d="m297.899406 558 1.713613 46.035967c.038902 1.04508-.776768 1.923821-1.821848 1.962722-.023469.000874-.046952.001311-.070437.001311-1.038054 0-1.879563-.841509-1.879563-1.879563 0-.027968.000625-.055932.001873-.083872z"/><path d="m333.899406 444 1.713613 46.035967c.038902 1.04508-.776768 1.923821-1.821848 1.962722-.023469.000874-.046952.001311-.070437.001311-1.038054 0-1.879563-.841509-1.879563-1.879563 0-.027968.000625-.055932.001873-.083872z"/><path d="m333.899406 516 1.713613 46.035967c.038902 1.04508-.776768 1.923821-1.821848 1.962722-.023469.000874-.046952.001311-.070437.001311-1.038054 0-1.879563-.841509-1.879563-1.879563 0-.027968.000625-.055932.001873-.083872z"/><path d="m333.899406 586 1.713613 46.035967c.038902 1.04508-.776768 1.923821-1.821848 1.962722-.023469.000874-.046952.001311-.070437.001311-1.038054 0-1.879563-.841509-1.879563-1.879563 0-.027968.000625-.055932.001873-.083872z"/><path d="m371.899406 480 1.713613 46.035967c.038902 1.04508-.776768 1.923821-1.821848 1.962722-.023469.000874-.046952.001311-.070437.001311-1.038054 0-1.879563-.841509-1.879563-1.879563 0-.027968.000625-.055932.001873-.083872z"/><path d="m371.899406 550 1.713613 46.035967c.038902 1.04508-.776768 1.923821-1.821848 1.962722-.023469.000874-.046952.001311-.070437.001311-1.038054 0-1.879563-.841509-1.879563-1.879563 0-.027968.000625-.055932.001873-.083872z"/></g><g opacity=".8" transform="matrix(.92718385 -.37460659 .37460659 .92718385 -45.998631 -83.378559)"><path d="m.94970301 96 .85680657 23.017984c.0194507.52254-.38838388.96191-.91092402.981361-.01173445.000437-.02347602.000655-.0352186.000655-.51902689 0-.93978132-.420754-.93978132-.939781 0-.013984.00031212-.027967.00093614-.041937z"/><path d="m.94970301 126 .85680657 23.017984c.0194507.52254-.38838388.96191-.91092402.981361-.01173445.000437-.02347602.000655-.0352186.000655-.51902689 0-.93978132-.420754-.93978132-.939781 0-.013984.00031212-.027967.00093614-.041937z"/><path d="m.94970301 160 .85680657 23.017984c.0194507.52254-.38838388.96191-.91092402.981361-.01173445.000437-.02347602.000655-.0352186.000655-.51902689 0-.93978132-.420754-.93978132-.939781 0-.013984.00031212-.027967.00093614-.041937z"/><path d="m.94970301 193 .85680657 23.017984c.0194507.52254-.38838388.96191-.91092402.981361-.01173445.000437-.02347602.000655-.0352186.000655-.51902689 0-.93978132-.420754-.93978132-.939781 0-.013984.00031212-.027967.00093614-.041937z"/><path d="m.94970301 225 .85680657 23.017984c.0194507.52254-.38838388.96191-.91092402.981361-.01173445.000437-.02347602.000655-.0352186.000655-.51902689 0-.93978132-.420754-.93978132-.939781 0-.013984.00031212-.027967.00093614-.041937z"/><path d="m.94970301 261 .85680657 23.017984c.0194507.52254-.38838388.96191-.91092402.981361-.01173445.000437-.02347602.000655-.0352186.000655-.51902689 0-.93978132-.420754-.93978132-.939781 0-.013984.00031212-.027967.00093614-.041937z"/><path d="m.94970301 296 .85680657 23.017984c.0194507.52254-.38838388.96191-.91092402.981361-.01173445.000437-.02347602.000655-.0352186.000655-.51902689 0-.93978132-.420754-.93978132-.939781 0-.013984.00031212-.027967.00093614-.041937z"/><path d="m18.949703 92 .8568066 23.017984c.0194507.52254-.3883839.96191-.910924.981361-.0117345.000437-.0234761.000655-.0352186.000655-.5190269 0-.9397814-.420754-.9397814-.939781 0-.013984.0003122-.027967.0009362-.041937z"/><path d="m18.949703 122 .8568066 23.017984c.0194507.52254-.3883839.96191-.910924.981361-.0117345.000437-.0234761.000655-.0352186.000655-.5190269 0-.9397814-.420754-.9397814-.939781 0-.013984.0003122-.027967.0009362-.041937z"/><path d="m18.949703 152 .8568066 23.017984c.0194507.52254-.3883839.96191-.910924.981361-.0117345.000437-.0234761.000655-.0352186.000655-.5190269 0-.9397814-.420754-.9397814-.939781 0-.013984.0003122-.027967.0009362-.041937z"/><path d="m18.949703 186 .8568066 23.017984c.0194507.52254-.3883839.96191-.910924.981361-.0117345.000437-.0234761.000655-.0352186.000655-.5190269 0-.9397814-.420754-.9397814-.939781 0-.013984.0003122-.027967.0009362-.041937z"/><path d="m18.949703 219 .8568066 23.017984c.0194507.52254-.3883839.96191-.910924.981361-.0117345.000437-.0234761.000655-.0352186.000655-.5190269 0-.9397814-.420754-.9397814-.939781 0-.013984.0003122-.027967.0009362-.041937z"/><path d="m18.949703 251 .8568066 23.017984c.0194507.52254-.3883839.96191-.910924.981361-.0117345.000437-.0234761.000655-.0352186.000655-.5190269 0-.9397814-.420754-.9397814-.939781 0-.013984.0003122-.027967.0009362-.041937z"/><path d="m18.949703 287 .8568066 23.017984c.0194507.52254-.3883839.96191-.910924.981361-.0117345.000437-.0234761.000655-.0352186.000655-.5190269 0-.9397814-.420754-.9397814-.939781 0-.013984.0003122-.027967.0009362-.041937z"/><path d="m18.949703 322 .8568066 23.017984c.0194507.52254-.3883839.96191-.910924.981361-.0117345.000437-.0234761.000655-.0352186.000655-.5190269 0-.9397814-.420754-.9397814-.939781 0-.013984.0003122-.027967.0009362-.041937z"/><path d="m36.949703 102 .8568066 23.017984c.0194507.52254-.3883839.96191-.910924.981361-.0117345.000437-.0234761.000655-.0352186.000655-.5190269 0-.9397814-.420754-.9397814-.939781 0-.013984.0003122-.027967.0009362-.041937z"/><path d="m36.949703 132 .8568066 23.017984c.0194507.52254-.3883839.96191-.910924.981361-.0117345.000437-.0234761.000655-.0352186.000655-.5190269 0-.9397814-.420754-.9397814-.939781 0-.013984.0003122-.027967.0009362-.041937z"/><path d="m36.949703 166 .8568066 23.017984c.0194507.52254-.3883839.96191-.910924.981361-.0117345.000437-.0234761.000655-.0352186.000655-.5190269 0-.9397814-.420754-.9397814-.939781 0-.013984.0003122-.027967.0009362-.041937z"/><path d="m36.949703 199 .8568066 23.017984c.0194507.52254-.3883839.96191-.910924.981361-.0117345.000437-.0234761.000655-.0352186.000655-.5190269 0-.9397814-.420754-.9397814-.939781 0-.013984.0003122-.027967.0009362-.041937z"/><path d="m36.949703 231 .8568066 23.017984c.0194507.52254-.3883839.96191-.910924.981361-.0117345.000437-.0234761.000655-.0352186.000655-.5190269 0-.9397814-.420754-.9397814-.939781 0-.013984.0003122-.027967.0009362-.041937z"/><path d="m36.949703 267 .8568066 23.017984c.0194507.52254-.3883839.96191-.910924.981361-.0117345.000437-.0234761.000655-.0352186.000655-.5190269 0-.9397814-.420754-.9397814-.939781 0-.013984.0003122-.027967.0009362-.041937z"/><path d="m36.949703 302 .8568066 23.017984c.0194507.52254-.3883839.96191-.910924.981361-.0117345.000437-.0234761.000655-.0352186.000655-.5190269 0-.9397814-.420754-.9397814-.939781 0-.013984.0003122-.027967.0009362-.041937z"/><path d="m56.949703 105 .8568066 23.017984c.0194507.52254-.3883839.96191-.910924.981361-.0117345.000437-.0234761.000655-.0352186.000655-.5190269 0-.9397814-.420754-.9397814-.939781 0-.013984.0003122-.027967.0009362-.041937z"/><path d="m56.949703 139 .8568066 23.017984c.0194507.52254-.3883839.96191-.910924.981361-.0117345.000437-.0234761.000655-.0352186.000655-.5190269 0-.9397814-.420754-.9397814-.939781 0-.013984.0003122-.027967.0009362-.041937z"/><path d="m56.949703 172 .8568066 23.017984c.0194507.52254-.3883839.96191-.910924.981361-.0117345.000437-.0234761.000655-.0352186.000655-.5190269 0-.9397814-.420754-.9397814-.939781 0-.013984.0003122-.027967.0009362-.041937z"/><path d="m56.949703 204 .8568066 23.017984c.0194507.52254-.3883839.96191-.910924.981361-.0117345.000437-.0234761.000655-.0352186.000655-.5190269 0-.9397814-.420754-.9397814-.939781 0-.013984.0003122-.027967.0009362-.041937z"/><path d="m56.949703 240 .8568066 23.017984c.0194507.52254-.3883839.96191-.910924.981361-.0117345.000437-.0234761.000655-.0352186.000655-.5190269 0-.9397814-.420754-.9397814-.939781 0-.013984.0003122-.027967.0009362-.041937z"/><path d="m56.949703 275 .8568066 23.017984c.0194507.52254-.3883839.96191-.910924.981361-.0117345.000437-.0234761.000655-.0352186.000655-.5190269 0-.9397814-.420754-.9397814-.939781 0-.013984.0003122-.027967.0009362-.041937z"/><path d="m74.949703 125 .8568066 23.017984c.0194507.52254-.3883839.96191-.910924.981361-.0117345.000437-.0234761.000655-.0352186.000655-.5190269 0-.9397814-.420754-.9397814-.939781 0-.013984.0003122-.027967.0009362-.041937z"/><path d="m74.949703 158 .8568066 23.017984c.0194507.52254-.3883839.96191-.910924.981361-.0117345.000437-.0234761.000655-.0352186.000655-.5190269 0-.9397814-.420754-.9397814-.939781 0-.013984.0003122-.027967.0009362-.041937z"/><path d="m74.949703 190 .8568066 23.017984c.0194507.52254-.3883839.96191-.910924.981361-.0117345.000437-.0234761.000655-.0352186.000655-.5190269 0-.9397814-.420754-.9397814-.939781 0-.013984.0003122-.027967.0009362-.041937z"/><path d="m74.949703 226 .8568066 23.017984c.0194507.52254-.3883839.96191-.910924.981361-.0117345.000437-.0234761.000655-.0352186.000655-.5190269 0-.9397814-.420754-.9397814-.939781 0-.013984.0003122-.027967.0009362-.041937z"/><path d="m74.949703 261 .8568066 23.017984c.0194507.52254-.3883839.96191-.910924.981361-.0117345.000437-.0234761.000655-.0352186.000655-.5190269 0-.9397814-.420754-.9397814-.939781 0-.013984.0003122-.027967.0009362-.041937z"/><path d="m92.949703 132 .8568066 23.017984c.0194507.52254-.3883839.96191-.910924.981361-.0117345.000437-.0234761.000655-.0352186.000655-.5190269 0-.9397814-.420754-.9397814-.939781 0-.013984.0003122-.027967.0009362-.041937z"/><path d="m92.949703 166 .8568066 23.017984c.0194507.52254-.3883839.96191-.910924.981361-.0117345.000437-.0234761.000655-.0352186.000655-.5190269 0-.9397814-.420754-.9397814-.939781 0-.013984.0003122-.027967.0009362-.041937z"/><path d="m92.949703 199 .8568066 23.017984c.0194507.52254-.3883839.96191-.910924.981361-.0117345.000437-.0234761.000655-.0352186.000655-.5190269 0-.9397814-.420754-.9397814-.939781 0-.013984.0003122-.027967.0009362-.041937z"/><path d="m92.949703 231 .8568066 23.017984c.0194507.52254-.3883839.96191-.910924.981361-.0117345.000437-.0234761.000655-.0352186.000655-.5190269 0-.9397814-.420754-.9397814-.939781 0-.013984.0003122-.027967.0009362-.041937z"/><path d="m92.949703 267 .8568066 23.017984c.0194507.52254-.3883839.96191-.910924.981361-.0117345.000437-.0234761.000655-.0352186.000655-.5190269 0-.9397814-.420754-.9397814-.939781 0-.013984.0003122-.027967.0009362-.041937z"/><path d="m92.949703 302 .8568066 23.017984c.0194507.52254-.3883839.96191-.910924.981361-.0117345.000437-.0234761.000655-.0352186.000655-.5190269 0-.9397814-.420754-.9397814-.939781 0-.013984.0003122-.027967.0009362-.041937z"/><path d="m111.949703 112 .856807 23.017984c.01945.52254-.388384.96191-.910924.981361-.011735.000437-.023476.000655-.035219.000655-.519027 0-.939781-.420754-.939781-.939781 0-.013984.000312-.027967.000936-.041937z"/><path d="m111.949703 146 .856807 23.017984c.01945.52254-.388384.96191-.910924.981361-.011735.000437-.023476.000655-.035219.000655-.519027 0-.939781-.420754-.939781-.939781 0-.013984.000312-.027967.000936-.041937z"/><path d="m111.949703 179 .856807 23.017984c.01945.52254-.388384.96191-.910924.981361-.011735.000437-.023476.000655-.035219.000655-.519027 0-.939781-.420754-.939781-.939781 0-.013984.000312-.027967.000936-.041937z"/><path d="m111.949703 211 .856807 23.017984c.01945.52254-.388384.96191-.910924.981361-.011735.000437-.023476.000655-.035219.000655-.519027 0-.939781-.420754-.939781-.939781 0-.013984.000312-.027967.000936-.041937z"/><path d="m111.949703 247 .856807 23.017984c.01945.52254-.388384.96191-.910924.981361-.011735.000437-.023476.000655-.035219.000655-.519027 0-.939781-.420754-.939781-.939781 0-.013984.000312-.027967.000936-.041937z"/><path d="m111.949703 282 .856807 23.017984c.01945.52254-.388384.96191-.910924.981361-.011735.000437-.023476.000655-.035219.000655-.519027 0-.939781-.420754-.939781-.939781 0-.013984.000312-.027967.000936-.041937z"/><path d="m130.949703 125 .856807 23.017984c.01945.52254-.388384.96191-.910924.981361-.011735.000437-.023476.000655-.035219.000655-.519027 0-.939781-.420754-.939781-.939781 0-.013984.000312-.027967.000936-.041937z"/><path d="m130.949703 159 .856807 23.017984c.01945.52254-.388384.96191-.910924.981361-.011735.000437-.023476.000655-.035219.000655-.519027 0-.939781-.420754-.939781-.939781 0-.013984.000312-.027967.000936-.041937z"/><path d="m130.949703 192 .856807 23.017984c.01945.52254-.388384.96191-.910924.981361-.011735.000437-.023476.000655-.035219.000655-.519027 0-.939781-.420754-.939781-.939781 0-.013984.000312-.027967.000936-.041937z"/><path d="m130.949703 224 .856807 23.017984c.01945.52254-.388384.96191-.910924.981361-.011735.000437-.023476.000655-.035219.000655-.519027 0-.939781-.420754-.939781-.939781 0-.013984.000312-.027967.000936-.041937z"/><path d="m130.949703 260 .856807 23.017984c.01945.52254-.388384.96191-.910924.981361-.011735.000437-.023476.000655-.035219.000655-.519027 0-.939781-.420754-.939781-.939781 0-.013984.000312-.027967.000936-.041937z"/><path d="m130.949703 295 .856807 23.017984c.01945.52254-.388384.96191-.910924.981361-.011735.000437-.023476.000655-.035219.000655-.519027 0-.939781-.420754-.939781-.939781 0-.013984.000312-.027967.000936-.041937z"/><path d="m148.949703 143 .856807 23.017984c.01945.52254-.388384.96191-.910924.981361-.011735.000437-.023476.000655-.035219.000655-.519027 0-.939781-.420754-.939781-.939781 0-.013984.000312-.027967.000936-.041937z"/><path d="m148.949703 176 .856807 23.017984c.01945.52254-.388384.96191-.910924.981361-.011735.000437-.023476.000655-.035219.000655-.519027 0-.939781-.420754-.939781-.939781 0-.013984.000312-.027967.000936-.041937z"/><path d="m148.949703 208 .856807 23.017984c.01945.52254-.388384.96191-.910924.981361-.011735.000437-.023476.000655-.035219.000655-.519027 0-.939781-.420754-.939781-.939781 0-.013984.000312-.027967.000936-.041937z"/><path d="m148.949703 244 .856807 23.017984c.01945.52254-.388384.96191-.910924.981361-.011735.000437-.023476.000655-.035219.000655-.519027 0-.939781-.420754-.939781-.939781 0-.013984.000312-.027967.000936-.041937z"/><path d="m148.949703 279 .856807 23.017984c.01945.52254-.388384.96191-.910924.981361-.011735.000437-.023476.000655-.035219.000655-.519027 0-.939781-.420754-.939781-.939781 0-.013984.000312-.027967.000936-.041937z"/><path d="m166.949703 157 .856807 23.017984c.01945.52254-.388384.96191-.910924.981361-.011735.000437-.023476.000655-.035219.000655-.519027 0-.939781-.420754-.939781-.939781 0-.013984.000312-.027967.000936-.041937z"/><path d="m166.949703 190 .856807 23.017984c.01945.52254-.388384.96191-.910924.981361-.011735.000437-.023476.000655-.035219.000655-.519027 0-.939781-.420754-.939781-.939781 0-.013984.000312-.027967.000936-.041937z"/><path d="m166.949703 222 .856807 23.017984c.01945.52254-.388384.96191-.910924.981361-.011735.000437-.023476.000655-.035219.000655-.519027 0-.939781-.420754-.939781-.939781 0-.013984.000312-.027967.000936-.041937z"/><path d="m166.949703 258 .856807 23.017984c.01945.52254-.388384.96191-.910924.981361-.011735.000437-.023476.000655-.035219.000655-.519027 0-.939781-.420754-.939781-.939781 0-.013984.000312-.027967.000936-.041937z"/><path d="m166.949703 293 .856807 23.017984c.01945.52254-.388384.96191-.910924.981361-.011735.000437-.023476.000655-.035219.000655-.519027 0-.939781-.420754-.939781-.939781 0-.013984.000312-.027967.000936-.041937z"/><path d="m185.949703 172 .856807 23.017984c.01945.52254-.388384.96191-.910924.981361-.011735.000437-.023476.000655-.035219.000655-.519027 0-.939781-.420754-.939781-.939781 0-.013984.000312-.027967.000936-.041937z"/><path d="m185.949703 204 .856807 23.017984c.01945.52254-.388384.96191-.910924.981361-.011735.000437-.023476.000655-.035219.000655-.519027 0-.939781-.420754-.939781-.939781 0-.013984.000312-.027967.000936-.041937z"/><path d="m185.949703 240 .856807 23.017984c.01945.52254-.388384.96191-.910924.981361-.011735.000437-.023476.000655-.035219.000655-.519027 0-.939781-.420754-.939781-.939781 0-.013984.000312-.027967.000936-.041937z"/><path d="m185.949703 275 .856807 23.017984c.01945.52254-.388384.96191-.910924.981361-.011735.000437-.023476.000655-.035219.000655-.519027 0-.939781-.420754-.939781-.939781 0-.013984.000312-.027967.000936-.041937z"/></g><g opacity=".8" transform="matrix(.92718385 -.37460659 .37460659 .92718385 150 -130.378559)"><path d="m.94970301 126 .85680657 23.017984c.0194507.52254-.38838388.96191-.91092402.981361-.01173445.000437-.02347602.000655-.0352186.000655-.51902689 0-.93978132-.420754-.93978132-.939781 0-.013984.00031212-.027967.00093614-.041937z"/><path d="m.94970301 160 .85680657 23.017984c.0194507.52254-.38838388.96191-.91092402.981361-.01173445.000437-.02347602.000655-.0352186.000655-.51902689 0-.93978132-.420754-.93978132-.939781 0-.013984.00031212-.027967.00093614-.041937z"/><path d="m.94970301 193 .85680657 23.017984c.0194507.52254-.38838388.96191-.91092402.981361-.01173445.000437-.02347602.000655-.0352186.000655-.51902689 0-.93978132-.420754-.93978132-.939781 0-.013984.00031212-.027967.00093614-.041937z"/><path d="m.94970301 225 .85680657 23.017984c.0194507.52254-.38838388.96191-.91092402.981361-.01173445.000437-.02347602.000655-.0352186.000655-.51902689 0-.93978132-.420754-.93978132-.939781 0-.013984.00031212-.027967.00093614-.041937z"/><path d="m.94970301 261 .85680657 23.017984c.0194507.52254-.38838388.96191-.91092402.981361-.01173445.000437-.02347602.000655-.0352186.000655-.51902689 0-.93978132-.420754-.93978132-.939781 0-.013984.00031212-.027967.00093614-.041937z"/><path d="m.94970301 296 .85680657 23.017984c.0194507.52254-.38838388.96191-.91092402.981361-.01173445.000437-.02347602.000655-.0352186.000655-.51902689 0-.93978132-.420754-.93978132-.939781 0-.013984.00031212-.027967.00093614-.041937z"/><path d="m18.949703 152 .8568066 23.017984c.0194507.52254-.3883839.96191-.910924.981361-.0117345.000437-.0234761.000655-.0352186.000655-.5190269 0-.9397814-.420754-.9397814-.939781 0-.013984.0003122-.027967.0009362-.041937z"/><path d="m18.949703 186 .8568066 23.017984c.0194507.52254-.3883839.96191-.910924.981361-.0117345.000437-.0234761.000655-.0352186.000655-.5190269 0-.9397814-.420754-.9397814-.939781 0-.013984.0003122-.027967.0009362-.041937z"/><path d="m18.949703 219 .8568066 23.017984c.0194507.52254-.3883839.96191-.910924.981361-.0117345.000437-.0234761.000655-.0352186.000655-.5190269 0-.9397814-.420754-.9397814-.939781 0-.013984.0003122-.027967.0009362-.041937z"/><path d="m18.949703 251 .8568066 23.017984c.0194507.52254-.3883839.96191-.910924.981361-.0117345.000437-.0234761.000655-.0352186.000655-.5190269 0-.9397814-.420754-.9397814-.939781 0-.013984.0003122-.027967.0009362-.041937z"/><path d="m18.949703 287 .8568066 23.017984c.0194507.52254-.3883839.96191-.910924.981361-.0117345.000437-.0234761.000655-.0352186.000655-.5190269 0-.9397814-.420754-.9397814-.939781 0-.013984.0003122-.027967.0009362-.041937z"/><path d="m18.949703 322 .8568066 23.017984c.0194507.52254-.3883839.96191-.910924.981361-.0117345.000437-.0234761.000655-.0352186.000655-.5190269 0-.9397814-.420754-.9397814-.939781 0-.013984.0003122-.027967.0009362-.041937z"/><path d="m36.949703 132 .8568066 23.017984c.0194507.52254-.3883839.96191-.910924.981361-.0117345.000437-.0234761.000655-.0352186.000655-.5190269 0-.9397814-.420754-.9397814-.939781 0-.013984.0003122-.027967.0009362-.041937z"/><path d="m36.949703 166 .8568066 23.017984c.0194507.52254-.3883839.96191-.910924.981361-.0117345.000437-.0234761.000655-.0352186.000655-.5190269 0-.9397814-.420754-.9397814-.939781 0-.013984.0003122-.027967.0009362-.041937z"/><path d="m36.949703 199 .8568066 23.017984c.0194507.52254-.3883839.96191-.910924.981361-.0117345.000437-.0234761.000655-.0352186.000655-.5190269 0-.9397814-.420754-.9397814-.939781 0-.013984.0003122-.027967.0009362-.041937z"/><path d="m36.949703 231 .8568066 23.017984c.0194507.52254-.3883839.96191-.910924.981361-.0117345.000437-.0234761.000655-.0352186.000655-.5190269 0-.9397814-.420754-.9397814-.939781 0-.013984.0003122-.027967.0009362-.041937z"/><path d="m36.949703 267 .8568066 23.017984c.0194507.52254-.3883839.96191-.910924.981361-.0117345.000437-.0234761.000655-.0352186.000655-.5190269 0-.9397814-.420754-.9397814-.939781 0-.013984.0003122-.027967.0009362-.041937z"/><path d="m36.949703 302 .8568066 23.017984c.0194507.52254-.3883839.96191-.910924.981361-.0117345.000437-.0234761.000655-.0352186.000655-.5190269 0-.9397814-.420754-.9397814-.939781 0-.013984.0003122-.027967.0009362-.041937z"/><path d="m56.949703 172 .8568066 23.017984c.0194507.52254-.3883839.96191-.910924.981361-.0117345.000437-.0234761.000655-.0352186.000655-.5190269 0-.9397814-.420754-.9397814-.939781 0-.013984.0003122-.027967.0009362-.041937z"/><path d="m56.949703 204 .8568066 23.017984c.0194507.52254-.3883839.96191-.910924.981361-.0117345.000437-.0234761.000655-.0352186.000655-.5190269 0-.9397814-.420754-.9397814-.939781 0-.013984.0003122-.027967.0009362-.041937z"/><path d="m56.949703 240 .8568066 23.017984c.0194507.52254-.3883839.96191-.910924.981361-.0117345.000437-.0234761.000655-.0352186.000655-.5190269 0-.9397814-.420754-.9397814-.939781 0-.013984.0003122-.027967.0009362-.041937z"/><path d="m56.949703 275 .8568066 23.017984c.0194507.52254-.3883839.96191-.910924.981361-.0117345.000437-.0234761.000655-.0352186.000655-.5190269 0-.9397814-.420754-.9397814-.939781 0-.013984.0003122-.027967.0009362-.041937z"/><path d="m74.949703 158 .8568066 23.017984c.0194507.52254-.3883839.96191-.910924.981361-.0117345.000437-.0234761.000655-.0352186.000655-.5190269 0-.9397814-.420754-.9397814-.939781 0-.013984.0003122-.027967.0009362-.041937z"/><path d="m74.949703 190 .8568066 23.017984c.0194507.52254-.3883839.96191-.910924.981361-.0117345.000437-.0234761.000655-.0352186.000655-.5190269 0-.9397814-.420754-.9397814-.939781 0-.013984.0003122-.027967.0009362-.041937z"/><path d="m74.949703 226 .8568066 23.017984c.0194507.52254-.3883839.96191-.910924.981361-.0117345.000437-.0234761.000655-.0352186.000655-.5190269 0-.9397814-.420754-.9397814-.939781 0-.013984.0003122-.027967.0009362-.041937z"/><path d="m74.949703 261 .8568066 23.017984c.0194507.52254-.3883839.96191-.910924.981361-.0117345.000437-.0234761.000655-.0352186.000655-.5190269 0-.9397814-.420754-.9397814-.939781 0-.013984.0003122-.027967.0009362-.041937z"/><path d="m92.949703 166 .8568066 23.017984c.0194507.52254-.3883839.96191-.910924.981361-.0117345.000437-.0234761.000655-.0352186.000655-.5190269 0-.9397814-.420754-.9397814-.939781 0-.013984.0003122-.027967.0009362-.041937z"/><path d="m92.949703 199 .8568066 23.017984c.0194507.52254-.3883839.96191-.910924.981361-.0117345.000437-.0234761.000655-.0352186.000655-.5190269 0-.9397814-.420754-.9397814-.939781 0-.013984.0003122-.027967.0009362-.041937z"/><path d="m92.949703 231 .8568066 23.017984c.0194507.52254-.3883839.96191-.910924.981361-.0117345.000437-.0234761.000655-.0352186.000655-.5190269 0-.9397814-.420754-.9397814-.939781 0-.013984.0003122-.027967.0009362-.041937z"/><path d="m92.949703 267 .8568066 23.017984c.0194507.52254-.3883839.96191-.910924.981361-.0117345.000437-.0234761.000655-.0352186.000655-.5190269 0-.9397814-.420754-.9397814-.939781 0-.013984.0003122-.027967.0009362-.041937z"/><path d="m92.949703 302 .8568066 23.017984c.0194507.52254-.3883839.96191-.910924.981361-.0117345.000437-.0234761.000655-.0352186.000655-.5190269 0-.9397814-.420754-.9397814-.939781 0-.013984.0003122-.027967.0009362-.041937z"/><path d="m111.949703 179 .856807 23.017984c.01945.52254-.388384.96191-.910924.981361-.011735.000437-.023476.000655-.035219.000655-.519027 0-.939781-.420754-.939781-.939781 0-.013984.000312-.027967.000936-.041937z"/><path d="m111.949703 211 .856807 23.017984c.01945.52254-.388384.96191-.910924.981361-.011735.000437-.023476.000655-.035219.000655-.519027 0-.939781-.420754-.939781-.939781 0-.013984.000312-.027967.000936-.041937z"/><path d="m111.949703 247 .856807 23.017984c.01945.52254-.388384.96191-.910924.981361-.011735.000437-.023476.000655-.035219.000655-.519027 0-.939781-.420754-.939781-.939781 0-.013984.000312-.027967.000936-.041937z"/><path d="m111.949703 282 .856807 23.017984c.01945.52254-.388384.96191-.910924.981361-.011735.000437-.023476.000655-.035219.000655-.519027 0-.939781-.420754-.939781-.939781 0-.013984.000312-.027967.000936-.041937z"/><path d="m130.949703 192 .856807 23.017984c.01945.52254-.388384.96191-.910924.981361-.011735.000437-.023476.000655-.035219.000655-.519027 0-.939781-.420754-.939781-.939781 0-.013984.000312-.027967.000936-.041937z"/><path d="m130.949703 224 .856807 23.017984c.01945.52254-.388384.96191-.910924.981361-.011735.000437-.023476.000655-.035219.000655-.519027 0-.939781-.420754-.939781-.939781 0-.013984.000312-.027967.000936-.041937z"/><path d="m130.949703 260 .856807 23.017984c.01945.52254-.388384.96191-.910924.981361-.011735.000437-.023476.000655-.035219.000655-.519027 0-.939781-.420754-.939781-.939781 0-.013984.000312-.027967.000936-.041937z"/><path d="m148.949703 208 .856807 23.017984c.01945.52254-.388384.96191-.910924.981361-.011735.000437-.023476.000655-.035219.000655-.519027 0-.939781-.420754-.939781-.939781 0-.013984.000312-.027967.000936-.041937z"/></g><g opacity=".8" transform="matrix(.92718385 -.37460659 .37460659 .92718385 -232 2.621433)"><path d="m130.949703 295 .856807 23.017984c.01945.52254-.388384.96191-.910924.981361-.011735.000437-.023476.000655-.035219.000655-.519027 0-.939781-.420754-.939781-.939781 0-.013984.000312-.027967.000936-.041937z"/><path d="m148.949703 244 .856807 23.017984c.01945.52254-.388384.96191-.910924.981361-.011735.000437-.023476.000655-.035219.000655-.519027 0-.939781-.420754-.939781-.939781 0-.013984.000312-.027967.000936-.041937z"/><path d="m148.949703 279 .856807 23.017984c.01945.52254-.388384.96191-.910924.981361-.011735.000437-.023476.000655-.035219.000655-.519027 0-.939781-.420754-.939781-.939781 0-.013984.000312-.027967.000936-.041937z"/><path d="m166.949703 190 .856807 23.017984c.01945.52254-.388384.96191-.910924.981361-.011735.000437-.023476.000655-.035219.000655-.519027 0-.939781-.420754-.939781-.939781 0-.013984.000312-.027967.000936-.041937z"/><path d="m166.949703 222 .856807 23.017984c.01945.52254-.388384.96191-.910924.981361-.011735.000437-.023476.000655-.035219.000655-.519027 0-.939781-.420754-.939781-.939781 0-.013984.000312-.027967.000936-.041937z"/><path d="m166.949703 258 .856807 23.017984c.01945.52254-.388384.96191-.910924.981361-.011735.000437-.023476.000655-.035219.000655-.519027 0-.939781-.420754-.939781-.939781 0-.013984.000312-.027967.000936-.041937z"/><path d="m166.949703 293 .856807 23.017984c.01945.52254-.388384.96191-.910924.981361-.011735.000437-.023476.000655-.035219.000655-.519027 0-.939781-.420754-.939781-.939781 0-.013984.000312-.027967.000936-.041937z"/><path d="m185.949703 139 .856807 23.017984c.01945.52254-.388384.96191-.910924.981361-.011735.000437-.023476.000655-.035219.000655-.519027 0-.939781-.420754-.939781-.939781 0-.013984.000312-.027967.000936-.041937z"/><path d="m185.949703 172 .856807 23.017984c.01945.52254-.388384.96191-.910924.981361-.011735.000437-.023476.000655-.035219.000655-.519027 0-.939781-.420754-.939781-.939781 0-.013984.000312-.027967.000936-.041937z"/><path d="m185.949703 204 .856807 23.017984c.01945.52254-.388384.96191-.910924.981361-.011735.000437-.023476.000655-.035219.000655-.519027 0-.939781-.420754-.939781-.939781 0-.013984.000312-.027967.000936-.041937z"/><path d="m185.949703 240 .856807 23.017984c.01945.52254-.388384.96191-.910924.981361-.011735.000437-.023476.000655-.035219.000655-.519027 0-.939781-.420754-.939781-.939781 0-.013984.000312-.027967.000936-.041937z"/><path d="m185.949703 275 .856807 23.017984c.01945.52254-.388384.96191-.910924.981361-.011735.000437-.023476.000655-.035219.000655-.519027 0-.939781-.420754-.939781-.939781 0-.013984.000312-.027967.000936-.041937z"/></g></g><g fill="url(#g)" transform="translate(-40 -59)"><path d="m257.673797 19c12.011455 0 21.748663 9.5025766 21.748663 21.2245989 0 .565715-.022679 1.1262607-.067198 1.6808183 7.464139 3.3622239 12.644738 10.7315676 12.644738 19.2817486 0 11.7220223-9.737208 21.2245989-21.748663 21.2245989-6.582375 0-12.481764-2.8537464-16.469959-7.3626259-3.805405 4.9644745-10.730505 7.3626259-18.642341 7.3626259-10.107033 0-18.603814-3.9135373-21.044078-12.092194-.405851.0260036-.815701.0387181-1.228649.0387181-10.419575 0-18.86631-8.0947875-18.86631-18.0802139s8.446735-18.0802139 18.86631-18.0802139c.024703 0 .049395.0000455.074075.0001364.817846-8.5243632 8.215234-15.1979974 17.220043-15.1979974 5.101001 0 9.68619 2.1415303 12.851587 5.5480041 3.866249-3.4459672 9.012476-5.5480041 14.661782-5.5480041z"/><path d="m113.053476 0c21.326461 0 38.614973 16.8719218 38.614973 37.684492 0 1.0046394-.040283 2.0000968-.11936 2.9849178 13.253196 5.9697546 22.450911 19.0538058 22.450911 34.2343335 0 20.8125702-17.288512 37.6844917-38.614973 37.6844917-11.687488 0-22.162241-5.067214-29.243332-13.0732671-6.7555644 8.8152491-19.051244 13.0732671-33.0989143 13.0732671-17.9445763 0-33.0303142-6.948088-37.3635682-21.4684443-.7202408.0447769-1.4483098.0673751-2.1818863.0673751-18.5000624 0-33.4973262-14.3723778-33.4973262-32.1016043s14.9972638-32.1016043 33.4973262-32.1016043c.0447474 0 .0894744.0000841.1341807.0002521 1.4501709-15.1357688 14.5840206-26.9842093 30.5717017-26.9842093 9.0570735 0 17.1982786 3.80247207 22.8184859 9.8509273 6.8643857-6.1188138 16.0014815-9.8509273 26.0317815-9.8509273z" transform="matrix(-1 0 0 1 174 0)"/><path d="m427.5 22c22.919817 0 41.5 18.1324676 41.5 40.5 0 1.0800226-.043319 2.1501712-.128354 3.2088815 14.243226 6.4144935 24.128354 20.4762251 24.128354 36.7911185 0 22.367532-18.580183 40.5-41.5 40.5-12.560547 0-23.817784-5.445675-31.427919-14.049712-7.260634 9.473595-20.47492 14.049712-35.572081 14.049712-19.285038 0-35.497717-7.467024-40.154936-23.071861-.775248.047607-1.5572.071861-2.345064.071861-19.882251 0-36-15.446176-36-34.5 0-19.0538239 16.117749-34.5 36-34.5.048118 0 .096215.0000905.144289.0002712 1.557817-16.2660463 15.673173-29.0002712 32.855711-29.0002712 9.733657 0 18.483037 4.0864851 24.523139 10.586726 7.377474-6.5757991 17.197201-10.586726 27.976861-10.586726z"/></g></g></svg>