<svg height="470" viewBox="0 0 375 470" width="375" xmlns="http://www.w3.org/2000/svg" xmlns:xlink="http://www.w3.org/1999/xlink"><defs><linearGradient id="a" x1="50%" x2="50%" y1="0%" y2="100%"><stop offset="0" stop-color="#8fa1b0"/><stop offset="1" stop-color="#5f7083"/></linearGradient><linearGradient id="b"><stop offset="0" stop-color="#a7ccff"/><stop offset="1" stop-color="#6e9dff"/></linearGradient><linearGradient id="c" x1="114.846199%" x2="35.186013%" xlink:href="#b" y1="-16.025463%" y2="56.967824%"/><path id="d" d="m1.28626224 74.4136565c6.029179-13.6000071.90379639-21.5997563 14.85270796-41.0766909 2.2513872-3.143623 12.9472879-9.1050602 19.8183722-16.6600331 6.7055014-7.37290937 9.5939328-16.3821556 11.3934583-16.27298049 3.8648853.23762798 14.010611 7.79446192 17.6444886 10.00100069 2.8877851 1.7535015 11.3039871 9.3152709 25.5413298 15.9633966 14.2373429 6.6481257 23.1346909 22.865772 35.6513529 48.0453072-11.862702-2.4139019-18.886106.3475308-21.070212 8.2842981.045538-16.9156033-1.630426-21.7886407-5.027892-14.6191122-3.3974654 7.1695286-1.7215015 37.1577106 5.027892 89.9645456h-92.6573328l13.8695667-75.3454334c-20.71527377 3.543806-29.06318433.7823733-25.04373166-8.2842981z"/><linearGradient id="e" x1="151.692914%" x2="26.768454%" xlink:href="#b" y1="15.80275%" y2="53.608917%"/><linearGradient id="f" x1="85.683667%" x2="50%" y1="-21.79562%" y2="50%"><stop offset="0" stop-color="#5e587e"/><stop offset="1" stop-color="#302c48"/></linearGradient><linearGradient id="g" x1="55.396262%" x2="35.950494%" y1="60.120307%" y2="46.977843%"><stop offset="0" stop-color="#929faa"/><stop offset="1" stop-color="#d4dbe0"/></linearGradient><linearGradient id="h" x1="56.288664%" x2="33.62707%" y1="60.120307%" y2="46.977843%"><stop offset="0" stop-color="#b8c6d1"/><stop offset="1" stop-color="#e3e7eb"/></linearGradient><linearGradient id="i" x1="57.33173%" x2="30.911381%" y1="60.120307%" y2="46.977843%"><stop offset="0" stop-color="#f8f9fa"/><stop offset="1" stop-color="#eff1f3"/></linearGradient><linearGradient id="j" x1="69.159822%" x2="27.977156%" y1="48.305698%" y2="55.778789%"><stop offset="0" stop-color="#f1f3f7"/><stop offset="1" stop-color="#d6dce2"/></linearGradient><linearGradient id="k" x1="100%" x2="0%" y1="100%" y2="100%"><stop offset="0" stop-color="#d9dfe6"/><stop offset="1" stop-color="#c1cad5"/></linearGradient><mask id="l" fill="#fff"><use fill="#fff" fill-rule="evenodd" xlink:href="#d"/></mask></defs><g fill="none" fill-rule="evenodd" transform="translate(55 68)"><g fill="url(#a)" fill-rule="nonzero" opacity=".5" transform="matrix(.05233596 .99862953 -.99862953 .05233596 176.826682 .192775)"><path d="m24.6147648 16.1860199-5.0454207-9.75333332c-.5289381-1.02249331-1.7763242-1.41720502-2.786115-.88161329s-1.399599 1.79866922-.8706609 2.82116253l5.0454207 9.75333328c.528938 1.0224934 1.7763241 1.4172051 2.7861149.8816133 1.0097908-.5355917 1.399599-1.7986692.870661-2.8211625z"/><path d="m11.9222521 27.3764765-5.0454207-9.7533333c-.52893803-1.0224933-1.77632419-1.417205-2.78611497-.8816133s-1.39959895 1.7986692-.87066093 2.8211625l5.0454207 9.7533333c.52893803 1.0224934 1.7763242 1.4172051 2.786115.8816133 1.0097908-.5355917 1.3995989-1.7986692.8706609-2.8211625z" transform="matrix(.91354546 -.40673664 .40673664 .91354546 -8.891379 5.108518)"/><path d="m40.0280531 12.5913912-5.0454207-9.7533333c-.528938-1.02249331-1.7763242-1.41720503-2.786115-.88161329-1.0097908.53559173-1.3995989 1.79866922-.8706609 2.82116252l5.0454207 9.75333337c.528938 1.0224933 1.7763242 1.417205 2.786115.8816133 1.0097907-.5355918 1.3995989-1.7986693.8706609-2.8211626z" transform="matrix(.8660254 .5 -.5 .8660254 9.122055 -16.674975)"/></g><g transform="translate(65 93)"><use fill="url(#c)" xlink:href="#d"/><path d="m23.8347132 23.579138c27.9688376-.5733576 42.5866329-6.7807308 43.8533861-18.62211943 1.2667532-11.84138868-6.0421444-15.61764067-21.926693-11.32875611z" fill="url(#e)" mask="url(#l)" opacity=".184839" transform="matrix(.98480775 .17364818 -.17364818 .98480775 2.041784 -7.840854)"/></g><path d="m160 155.010679c12.733389 28.414707 23.374145 49.0467 31.482807 49.754606 10.588929 2.286248 31.816239-12.578916 53.910904-25.029924l1.606289-18.320904c-11.196059 14.291592-34.018754 16.723889-44.732979 21.569839-3.771097-1.761651-11.867453-11.07207-23.095318-49.984296z" fill="#6e9dff" fill-rule="nonzero" transform="matrix(.9781476 -.20791169 .20791169 .9781476 -30.690112 46.003085)"/><g transform="translate(90 17)"><path d="m32.572631 10.5938595c14.3175637 0 24.8303435 11.7231848 23.4809507 26.184466l-2.6117945 27.9902913c-1.3493928 14.4612813-10.6928323 26.184466-20.8691562 26.184466-10.176324 0-19.5197635-11.7231847-20.8691562-26.184466l-2.61179456-27.9902913c-1.34939273-14.4612812 9.16338696-26.184466 23.48095076-26.184466z" fill="#ff7c7c" transform="matrix(.99756405 -.06975647 .06975647 .99756405 -3.462433 2.395834)"/><path d="m44.4711794 13.3139503.4827964.3027945c1.5637724.9842009 3.2387314 2.0416341 5.9799157 2.904881l1.0561309 14.379656c-4.3426732 2.6275197-9.1571484 4.7424599-13.7196472 4.262922-10.5369566-1.1074788-10.1069959-.5710605-10.3152369 1.1245863l-.018512.1400156c-.0814753.5701471-.2630725 1.2608513-.9406941 2.0555783l-6.8458605 21.7425174c-.1260544 10.7932866 4.3198629 23.8000022 10.7659777 30.2055065-8.50947-2.1902034-16.1774071-12.0198581-18.1854864-24.2411686l-4.55793635-27.7399187c-2.35487367-14.3319255 7.31452945-26.7598876 21.59721635-27.7586303 8.9681987-.6271176 11.8132885.8221522 14.7013364 2.62126z" fill="#ff7c7c" opacity=".275079"/><path d="m12.7273448 68.243506c-3.13728922-3.3457702-5.40993537-7.2616634-6.81793848-11.7476796-4.34652201-13.8483844-6.02531171-30.0163434-5.36363637-36.9765586 1.54008396-16.20026479 20.88162565-24.41546967 38.71557185-16.20026479 17.8339463 8.21520489 21.3700405 23.85311049 17.0565627 26.47524419-4.3134779 2.6221336-32.388674 3.6923438-37.9896168-2.6221337-6.0207004 1.7480891-7.8876814 15.4385533-5.6009429 41.0713925z" fill="url(#f)"/><path d="m13.4086365 52.211244c3.7028182 0 6.2580302-2.1733813 6.2580302-6.1627003s-3.0017273-7.223301-6.7045455-7.223301-5.81151495.0323655-5.81151495 4.0216844c0 3.989319 2.555212 9.3643169 6.25803025 9.3643169z" fill="#ff6a6a" transform="matrix(.9945219 .10452846 -.10452846 .9945219 4.831406 -1.15223)"/></g><g transform="translate(0 93)"><path d="m13 0c18.1246425 18.3127943 34.0144453 29.3720421 47.6694083 33.1777435 13.6549631 3.8057015 37.831827 9.7876059 72.5305917 17.9457133v151.7121412c-31.771042-4.463487-55.9479057-9.367134-72.5305917-14.710941-16.5826859-5.343808-26.4724887-14.14798-29.6694083-26.412516z" fill="url(#g)"/><path d="m6 4c22.7913092 17.6461276 41.0144453 28.3720421 54.6694083 32.1777435 13.6549631 3.8057015 37.831827 8.7876059 72.5305917 14.9457133v151.7121412c-31.771042-4.463487-55.9479057-9.367134-72.5305917-14.710941-16.5826859-5.343808-28.805822-12.814646-36.6694083-22.412516z" fill="url(#h)"/><path d="m0 13c26.7913092 13.6461276 47.0144453 22.3720421 60.6694083 26.1777435 13.6549631 3.8057015 37.831827 7.4542726 72.5305917 10.9457133v155.7121412c-31.771042-4.463487-55.9479057-9.367134-72.5305917-14.710941-16.5826859-5.343808-30.805822-12.814646-42.6694083-22.412516z" fill="url(#i)"/><path d="m257 17.7901235-13.2 155.7121405c-24.563836 2.950688-43.188163 6.263588-55.872981 9.938699-12.684817 3.675112-31.26049 11.13999-55.727019 22.394635v-155.7121412c21.579087-12.5748651 40.15476-20.8795375 55.727019-24.9140171 15.57226-4.0344795 38.596587-6.507585 69.072981-7.4193162zm-28.423995 50.9736499-12.59116 1.6314864-7.566064 2.980365-6.201259-1.1964784c-2.489788.4473688-4.510149.8247759-6.061084 1.1322215l-.559596.1120126c-.62719.1268554-1.164529.2403197-1.612016.3403929-.970561.2170498-4.042638 2.6887607-9.216233 7.4151327l-8.307942-.4358757-4.732147.2765795-4.682909 4.2528915-6.651949 3.7391281.88122 6.68975-1.084539 4.7612155-1.082973 4.673107 5.034407 4.830906-4.62292 8.639675.977525 4.797794-2.196539 3.908212 3.324349 5.343314-2.13607 6.456366-.09446 6.21989 7.650463-2.732601 4.10656-.373065 3.674502-2.228602 4.479752-3.436801 5.693565.19724 3.26055.702944 5.725788-3.363338 4.617332 1.569997 4.933063-2.705281 3.089387-1.367244 6.296858 2.588726 5.371626-2.653139 7.002592-1.155074 1.608723-4.516737-2.466828-5.388853 2.716343-6.214052-1.743763-4.812719 1.337621-6.341294 2.221773-4.1653944-1.682447-5.9643545-1.683111-5.9518876 2.306048-5.7482892z" fill="url(#j)"/><path d="m155 60.7187237c8.847142-4.7096763 19.942036-8.9646082 33.284684-12.7647958 13.342647-3.8001875 27.018628-5.9337084 41.027942-6.4005626v13.5855775c-13.737101.0888728-26.573093 1.6199268-38.507976 4.593162-11.934884 2.9732351-23.869767 7.9464703-35.80465 14.9197054z" fill="url(#k)"/><path d="m158 161.718724c5.5329-4.064408 14.970674-7.996706 28.313322-11.796894 13.342647-3.800187 26.381692-5.811348 39.117134-6.033481l-1 11.585577c-10.541935.098496-21.780345 1.634362-33.715228 4.607597s-22.839959 7.829998-32.715228 14.570287z" fill="url(#k)"/><g fill="#d1d9e0"><path d="m24.6778234 59.341918c8.1487258 4.5649903 13.3027096 8.2375924 27.5921453 12.4978365 20.8755769 6.2238324 41.6756823 8.8298509 61.9591003 6.7859026l-1.01836-9.7942438c-18.4009693 1.854255-37.846964-.6759521-57.2235678-6.4528816-13.3837384-3.99022-26.5901545-9.1664953-33.9829141-13.3079865z" fill-rule="nonzero" opacity=".6" transform="matrix(.99756405 .06975647 -.06975647 .99756405 4.643646 -4.595212)"/><path d="m26.9740567 80.3589418c8.1487258 4.5649904 13.3008829 8.2027355 27.5903186 12.4629796 20.8755769 6.2238324 39.6805542 8.9693636 59.9639727 6.9254155l-1.022014-9.8639578c-18.4009693 1.8542551-35.8481824-.745751-55.2247862-6.5226805-13.3837384-3.99022-25.5925905-9.2362518-32.98535-13.377743z" fill-rule="nonzero" opacity=".6" transform="matrix(.99939083 .0348995 -.0348995 .99939083 3.015988 -2.388002)"/><path d="m29.4029355 100.393827c7.9656449 4.564991 15.2234529 9.185289 29.1918418 13.445533 20.4065565 6.223832 36.4224062 6.951911 56.2501087 4.907963l-1.044873-9.898852c-17.9875474 1.854255-32.630317 1.306595-51.5715785-4.470334-13.0830403-3.99022-27.2619082-10.2362519-34.4885715-14.3777431z" fill-rule="nonzero" opacity=".6" transform="matrix(.9998477 .01745241 -.01745241 .9998477 1.841346 -1.228249)"/><path d="m31.2520822 113.268873 4.7540755 46.593157c11.6422059 6.988167 24.5357702 11.200824 38.6806931 12.63797-2.4095595-16.430043-2.4095595-24.637422-2.4095595-44.231051-16.1708085-2.481165-29.8458782-7.481191-41.0252091-15.000076z" opacity=".6"/></g></g><g fill="#ff7c7c"><g transform="translate(245 147)"><rect height="4.444444" rx="2.222222" transform="matrix(.97029573 .2419219 -.2419219 .97029573 1.145913 -1.332714)" width="10.285714" x=".857143" y="1.777778"/><rect height="4.444444" rx="2.222222" transform="matrix(.97029573 .2419219 -.2419219 .97029573 2.436163 -1.174291)" width="10.285714" x=".857143" y="7.111111"/><rect height="4.444444" rx="2.222222" transform="matrix(.97029573 .2419219 -.2419219 .97029573 3.726414 -1.015869)" width="10.285714" x=".857143" y="12.444444"/><rect height="4.444444" rx="2.222222" transform="matrix(.97029573 .2419219 -.2419219 .97029573 5.016664 -.857446)" width="10.285714" x=".857143" y="17.777778"/></g><g transform="matrix(-.98480775 .17364818 -.17364818 -.98480775 16.905801 195.7834)"><rect height="4" rx="2" transform="matrix(.97029573 .2419219 -.2419219 .97029573 1.145913 -1.332714)" width="10" x="1" y="2"/><rect height="4" rx="2" transform="matrix(.97029573 .2419219 -.2419219 .97029573 2.355523 -1.184193)" width="10" x="1" y="7"/><rect height="4" rx="2" transform="matrix(.97029573 .2419219 -.2419219 .97029573 3.565132 -1.035672)" width="10" x="1" y="12"/><rect height="4" rx="2" transform="matrix(.97029573 .2419219 -.2419219 .97029573 4.783575 -.928708)" width="10" x="1.173648" y="17.015192"/></g></g></g></svg>