<svg height="470" viewBox="0 0 375 470" width="375" xmlns="http://www.w3.org/2000/svg" xmlns:xlink="http://www.w3.org/1999/xlink"><linearGradient id="a"><stop offset="0" stop-opacity="0"/><stop offset="1" stop-color="#171635"/></linearGradient><linearGradient id="b" x1="8.595877%" x2="70.312643%" xlink:href="#a" y1="50%" y2="47.936951%"/><linearGradient id="c" x1="8.595877%" x2="70.312643%" xlink:href="#a" y1="50%" y2="49.747503%"/><linearGradient id="d" x1="8.595877%" x2="70.312643%" xlink:href="#a" y1="50%" y2="49.805207%"/><linearGradient id="e" x1="8.595877%" x2="70.312643%" xlink:href="#a" y1="50%" y2="49.791288%"/><linearGradient id="f" x1="50%" x2="50%" y1="0%" y2="100%"><stop offset="0" stop-color="#60658c"/><stop offset="1" stop-color="#8b8fb2"/></linearGradient><linearGradient id="g" x1="40.501433%" x2="65.948494%" y1="1.15395%" y2="54.931127%"><stop offset="0" stop-color="#bfc2da"/><stop offset="1" stop-color="#8b8fb2"/></linearGradient><g fill="none" fill-rule="evenodd"><path d="m0 0h375v470h-375z" fill="#686b89"/><g transform="translate(0 -122)"><path d="m292 0h292v515.726562l-292-151.726562z" fill="#616483"/><path d="m0 0h292v364h-292z" fill="#5b5e7d"/></g><g transform="translate(267 349)"><path d="m44.0689013 14.3004928c-8.5157867.4277474-14.0821824.7185928-16.699187.8725361-3.3546661.1973357-3.6217069 2.9905393-6.0070753 2.9905393-7.7649581 0-18.4272646.8074028-20.79764865-1.5919292-2.37038405-2.3993321 7.86686042-5.233973 11.77970955-7.53614038 2.9774845-1.75183539 3.2757232-5.18733069 4.8911177-5.73792078 3.7382587-1.27414583 9.5280665-1.27414583 17.3694233 0z" fill="url(#b)" fill-opacity=".2"/><g transform="translate(18)"><path d="m.84360013 7.73545779s.23913097-2.05140857 2.92381591-2.05140857c.7641951 0 2.52294394.36564924 5.27624651 1.09694771-1.58421444-.9708276-2.51666386-1.90444906-2.79734827-2.80086438-1.0047713-3.20891491.34319176-4.89600775 2.79734827-3.13173574 5.22377265 3.75532525 6.99457645-.62358951 8.94856675 3.13173574 1.9539904 3.75532524 9.5926745 10.32049655 7.2860992 11.21870175-2.3065753.8982053-7.5334501 1.7964105-9.7679821.8982053-2.234532-.8982053-4.0635909-5.2198332-6.46668385-3.0590192-2.403093 2.1608139-3.56842016 7.0669579-6.97608482 4.23249s-1.2239776-9.53505261-1.2239776-9.53505261z" fill="#fff"/><path d="m14.4644365 13.6788083-2.9545195-4.96155395 6.6372828 4.96155395z" fill="#d8d8d8" opacity=".498132"/></g></g><g transform="translate(-124 46)"><g fill-opacity=".2"><path d="m346.74396 271.769457-129.927002 8.730543-7.12307-17.440053 134.385637 3.069814z" fill="url(#c)"/><path d="m198.305838 322.248402-198.01691963 10.374425 27.36418433-25.56288h201.3443993z" fill="url(#d)"/><path d="m291.351593 256.159471-242.351593 4.879349v-28.03882l232.607503 14.449961z" fill="url(#e)"/></g><path d="m170.993811 224.58898c6.99145 16.44962 36.761239 41.980731 36.761239 64.46678-11.660277 0-39.605389 5.888322-83.835335 17.664965v14.876202c64.362747 2.634032 103.142535-.221638 116.339364-8.567011 6.954076-31.594748-2.064641-73.236299-27.056152-124.924655-12.910172-12.378309-23.933104-20.77044-33.068796-25.176393s-19.611559-6.382243-31.427602-5.928868c-11.738016 14.195091-16.093356 32.281957-13.066018 54.260597 4.541006 32.96796 4.826935 41.8896 4.736513 52.796335-11.502304-1.197458-39.294646 2.215401-83.377024 10.238578v14.76025c50.505139 1.193574 84.48406.505762 101.936764-2.063436 6.931788-10.674204 17.094178-30.502224 17.915421-47.219919.316255-6.437868-4.487643-8.462005-5.858374-15.183425z" fill="#302c48"/><g transform="matrix(.92718385 .37460659 -.37460659 .92718385 258.325558 127.566746)"><path d="m30.8223124 107.407498c0 3.984081 2.5901546 7.505506 6.3934213 8.692126l7.9972312 2.495139c2.6742618.83437 5.4884355 1.12524 8.2768187.855483l12.5151294-1.210757c0-2.283484-1.8511298-4.134614-4.1346141-4.134614h-9.384004c4.7598804-1.747724 9.2660864-2.174851 13.5186181-1.281381 2.0480386.586522 4.2086356 1.865069 6.4817909 3.83564 1.2017285 1.041762 2.6866941 1.701695 4.2652542 1.895517l2.0029769.245935c-4.1110618-5.561452-6.8782552-8.872818-8.3015801-9.934098s-4.7100836-1.887746-9.860276-2.479399l-18.6836885-3.956118z" fill="#fff" transform="matrix(.87461971 -.48480962 .48480962 .87461971 -47.014738 40.497441)"/><path d="m37.1638307.34373361c-20.8654071 11.84910789-33.04943562 33.74273829-36.55208563 65.68089109 8.01743899 17.0930457 18.42426563 34.9748773 31.22047993 53.6454933l7.6279881-10.043525c-8.0022031-20.0125823-14.3341621-34.8799051-18.9958769-44.6019683 4.1847814-3.6531906 8.8232279-30.2826953 30.5227161-44.6520478-.4383711-10.57273116-5.0461117-17.24901224-13.8232216-20.02884329z" fill="url(#f)"/><path d="m58.6631778 110.655504-11.0727739 3.846625 6.6347589.292272c.6677165-.758295 1.2927353-1.408979 1.8750564-1.952052s1.4366407-1.272022 2.5629586-2.186845z" fill="#eff1f3"/></g><g transform="matrix(.78801075 .61566148 -.61566148 .78801075 267.309067 .255039)"><path d="m78.4137666 46.5360983-.4823416 12.7983999c-.0421669 1.1188526-.9833592 1.9916787-2.1022117 1.9495118-.367178-.0138381-.7236916-.127207-1.0314237-.3279858l-4.678747-3.0526329-7.6736329 12.6205706c-1.1633787 1.9133705-3.6575766 2.521359-5.5709471 1.3579803-.3031064-.1842965-.5807163-.4075736-.8257194-.6641123l-9.5674349-10.0179068-20.3614467 15.5430946-14.773068-17.3742014 20.2971798-13.3888355c1.6717007-14.6653293 11.3430936-24.4977586 29.0141787-29.4972881.0729039-.020626.1456519-.0410405.218244-.0612432 9.5830178-2.6670505 19.5136356 2.9394924 22.180644 12.5225219 1.7456027 6.2722567-.0296773 12.9983198-4.6432735 17.5921269z" fill="#fff" transform="matrix(.99939082394 -.03489948865 .03489948865 .99939082394 99.15267328715 30.4437432737)"/><path d="m71.0940011 37.8878819c5.2376701-2.0552772 10.6681203 1.0783767 10.4274879 6.9225483-.4672577 11.3481535 9.3729004 12.945313 14.3694811 10.584581 11.2921859-5.3352136 11.7050699-20.0971721 1.0369999-34.8850919-10.6680702-14.78791986-30.0001097-17.37770309-42.3653564-8.45421-10.0902434 8.3719125-15.9999837 19.0550965-17.7292209 32.049552 1.6919485 1.2701969 3.1750747 1.491892 4.4493785.6650854 2.7709593-1.7978818 7.3401019-7.9239375 8.5952017-8.3735984 3.4978413-1.2531614 2.5242725 13.620147 5.0624035 13.1526314 8.8595207-1.6318953 10.9159546-9.6062205 16.1536247-11.6614978z" fill="#302c48" transform="matrix(.90630778526 -.42261825888 .42261825888 .90630778526 80.52414064613 50.59362957795)"/><ellipse cx="50.242263" cy="36.965959" fill="#fff" rx="5.090282" ry="7.071618" transform="matrix(-.89879404116 -.43837114468 .43837114468 -.89879404116 173.79954796389 121.21058529548)"/><path d="m20.4725811 45.4381377-16.80912836 21.3870107c-1.16812199 1.362809-1.010297 3.4145339.35251199 4.5826559s3.41453393 1.010297 4.58265592-.352512l16.77814955-22.7861381c1.168122-1.362809.1430639-3.6560585-1.1063644-4.1993281-1.2494284-.5432696-3.0139402.1202602-3.7978247 1.3683116z" fill="#302c48" fill-rule="nonzero" transform="matrix(.84804808859 -.52991926111 .52991926111 .84804808859 180.8198242198 109.98889939198)"/><path d="m33.2840335 51.5986182c6.8435284 0 12.3913043-10.1565034 12.3913043-22.6851852s-5.5477759-22.68518519-12.3913043-22.68518519c-1.5243535 0-4.2050683-1.20536831-5.5538541-.28357015-4.7065377 3.21658039-6.8374503 13.23075964-6.8374503 22.96875534 0 8.920778 2.4155827 17.9002734 6.5059289 21.6056926 1.6542924 1.4986132 3.914634 1.0794926 5.8853755 1.0794926z" fill="#d3d6ec" opacity=".6" transform="matrix(.96126168864 .27563736138 -.27563736138 .96126168864 206.17391559125 80.54387129439)"/><ellipse cx="29.26087" cy="25.574074" fill="#fff" opacity=".6" rx="12.391304" ry="22.685185" transform="matrix(.96592581936 .25881904218 -.25881904218 .96592581936 203.76057212908 83.6367156566)"/><g fill="#fff" transform="translate(201 135)"><path d="m.62809224 17.8073666 4.3906626-2.0293612c4.99131616-2.306983 10.41405556-3.5324193 15.91236246-3.5958924l5.2708426-.0608473.4758327-5.70118594 2.4283963 8.76065744c.9182962 3.3128359.7589167 6.8319108-.4550835 10.0481747l-.8916759 2.3623265c-.587702 1.5570049-2.0780566 2.5874494-3.7422855 2.5874494h-13.8397648-9.54928696z"/><path d="m1.7708825 17.5298905 2.97310808-8.59904718c.60657383-1.75437853 1.80435749-3.24321835 3.38813096-4.21143186l6.79934736-4.15666769c1.2644976 1.61848313 1.160076 3.91722228-.2459522 5.41439512l-1.527068 1.62605891c-.8706292.927067-1.3552654 2.15106164-1.3552654 3.4228511v2.7815518z"/></g><path d="m116.708549 80.6571943c9.231845-2.8427521 16.82858-3.6428584 22.790206-2.4003187-5.477727 2.9891508 6.418176 26.9958204 2.251661 30.8198264-2.777678 2.549338-7.050007 3.909509-12.816989 4.080513z" fill="#797da0" transform="matrix(.79863551 -.60181502 .60181502 .79863551 -31.31409 97.259265)"/><path d="m15.0334962 178.893091c-3.3372795 10.633297-4.7349028 24.046691-4.1928697 40.240181 12.1964204-10.974471 26.3068408-19.058336 42.3312614-24.251595 16.0244205-5.193259 30.2542243-6.294008 42.6894113-3.302247.7487264-22.310949 10.2822088-40.851429 28.6004468-55.621442 5.313173 15.088883 13.877677 27.523767 26.90348 42.415957 15.068175 4.275703 44.714043-26.031886 52.529157-29.943222-.887883-5.035435-1.523049-8.010942-3.070823-12.525178-12.880535 8.432081-18.401407 12.335504-39.142979 20.71969-3.013406-17.089874-10.983211-25.293297-12.008911-37.043596-1.917797-21.9700724-11.119208-20.6307925-15.908467-28.3867677-4.789259-7.7559753-37.6922691-6.1327817-45.4314938-3.6882521-8.467856 2.6746766-59.7084631 39.3210918-73.298213 91.3864718z" fill="url(#g)" transform="matrix(.98480775 .17364818 -.17364818 .98480775 28.07851 -16.320389)"/><path d="m94.662623 172.352578c-2.1565009-3.520311 12.489876-42.244173 23.699641-47.1318 8.319105 5.881205 7.070767 7.897979 8.562772 13.978025-20.42458 11.456546-28.6303775 25.491853-32.262413 33.153775z" fill="#8b8fb2" opacity=".2"/></g></g></g></svg>