<svg height="470" viewBox="0 0 375 470" width="375" xmlns="http://www.w3.org/2000/svg" xmlns:xlink="http://www.w3.org/1999/xlink"><defs><linearGradient id="a" x1="25.297681%" x2="100%" y1="50%" y2="50%"><stop offset="0" stop-color="#aaabc9" stop-opacity="0"/><stop offset="1" stop-color="#0e154b"/></linearGradient><linearGradient id="b"><stop offset="0" stop-color="#00dacb"/><stop offset="1" stop-color="#00c7da"/></linearGradient><linearGradient id="c" x1="100.646968%" x2="50%" xlink:href="#b" y1="33.471781%" y2="100%"/><path id="d" d="m12 0h64v10.1614327l5.4108723 10.8204825-5.4108723 12.2409652 1 12.5832632-5 12.4200743 9.4108723 17.6264615-5.4108723 13.5044302v8.6428904h-64c-6.627417 0-12-5.372583-12-12v-74c0-6.627417 5.372583-12 12-12z"/><linearGradient id="e" x1="94.721%" x2="50%" xlink:href="#b" y1="33.471781%" y2="100%"/><path id="f" d="m5 0h60c6.627417 0 12 5.372583 12 12v74c0 6.627417-5.372583 12-12 12h-60v-9.3240766l5.5571323-12.600216-5.5571323-9.9031335-4.5-9.7008524 4.5-10.7174449v-14.2115499l5.5571323-9.636883-5.5571323-12.00028805z"/><linearGradient id="g" x1="50%" x2="50%" y1="0%" y2="100%"><stop offset="0" stop-color="#8fa1b0"/><stop offset="1" stop-color="#5f7083"/></linearGradient><mask id="h" fill="#fff"><use fill="#fff" fill-rule="evenodd" xlink:href="#d"/></mask><mask id="i" fill="#fff"><use fill="#fff" fill-rule="evenodd" xlink:href="#f"/></mask></defs><g fill="none" fill-rule="evenodd"><path d="m0 0h375v470h-375z" fill="#eff1f3"/><g transform="translate(42 96)"><g transform="translate(48)"><circle cx="99" cy="99" fill="#fff" r="57"/><path d="m99 198c54.67619 0 99-44.32381 99-99 0-54.6761902-44.32381-99-99-99-54.6761902 0-99 44.3238098-99 99 0 54.67619 44.3238098 99 99 99z" opacity=".4" stroke="#686b89" stroke-dasharray="2 9" stroke-width="2"/><path d="m101.107422 108.605469c.828776 0 1.488525-.158122 1.979248-.474365.490723-.316244.866943-.730632 1.128662-1.243165.261719-.512532.430745-1.095947.50708-1.750244s.114502-1.330403.114502-2.02832l1.635742-10.46875v-8.0478516c0-.9160156-.070882-1.8102213-.212646-2.6826172-.141765-.8723958-.408936-1.6520996-.801514-2.3391113s-.937825-1.243164-1.635742-1.668457-1.603027-.6379395-2.715332-.6379395c-1.1123048 0-2.022868.207194-2.7316896.6215821-.7088216.414388-1.2595215.9596354-1.6520996 1.6357422-.3925781.6761067-.6652018 1.450358-.8178711 2.3227539-.1526693.8723958-.2290039 1.7666015-.2290039 2.6826172v7.9824218l1.7011719 10.5996094c0 .697917.0381673 1.374023.1145019 2.02832.0763347.654297.2453614 1.237712.5070801 1.750244.2617188.512533.6379395.926921 1.1286621 1.243165.4907227.316243 1.1504722.474365 1.9792482.474365zm0 14.459961c1.701172 0 3.02067-.441651 3.958496-1.324951.937825-.883301 1.406738-2.251872 1.406738-4.105713 0-1.875651-.44165-3.23877-1.324951-4.089356s-2.230062-1.275879-4.040283-1.275879c-1.7447918 0-3.0861004.425293-4.0239259 1.275879s-1.4067383 2.213705-1.4067383 4.089356c0 1.853841.4689128 3.222412 1.4067383 4.105713.9378255.8833 2.2791341 1.324951 4.0239259 1.324951z" fill="#7277a7" fill-rule="nonzero" opacity=".5"/></g><ellipse cx="124.674462" cy="246" fill="url(#a)" fill-opacity=".5" opacity=".80882" rx="92.415535" ry="5"/><g transform="matrix(.90630779 -.42261826 .42261826 .90630779 33.015971 123.654697)"><use fill="url(#c)" xlink:href="#d"/><g fill="#fff" mask="url(#h)" opacity=".648947"><g transform="translate(13 69)"><circle cx="8" cy="8" r="8"/><circle cx="17" cy="8" r="8"/></g></g><path d="m0 22h86v16h-86z" fill="#008a97" mask="url(#h)"/></g><g transform="matrix(.90630779 .42261826 -.42261826 .90630779 189.43256 130)"><use fill="url(#e)" xlink:href="#f"/><path d="m5 22h72v16h-72z" fill="#008a97" mask="url(#i)"/><g fill="#49ffef"><path d="m24 70h40v5h-40z" mask="url(#i)"/><path d="m42 79h22v5h-22z" mask="url(#i)"/></g></g><g fill="url(#g)" fill-rule="nonzero"><g opacity=".5" transform="matrix(.01745241 .9998477 -.9998477 .01745241 289.743074 130.531337)"><path d="m24.6147648 16.1860199-5.0454207-9.75333332c-.5289381-1.02249331-1.7763242-1.41720502-2.786115-.88161329s-1.399599 1.79866922-.8706609 2.82116253l5.0454207 9.75333328c.528938 1.0224934 1.7763241 1.4172051 2.7861149.8816133 1.0097908-.5355917 1.399599-1.7986692.870661-2.8211625z"/><path d="m11.9222521 27.3764765-5.0454207-9.7533333c-.52893803-1.0224933-1.77632419-1.417205-2.78611497-.8816133s-1.39959895 1.7986692-.87066093 2.8211625l5.0454207 9.7533333c.52893803 1.0224934 1.7763242 1.4172051 2.786115.8816133 1.0097908-.5355917 1.3995989-1.7986692.8706609-2.8211625z" transform="matrix(.91354546 -.40673664 .40673664 .91354546 -8.891379 5.108518)"/><path d="m40.0280531 12.5913912-5.0454207-9.7533333c-.528938-1.02249331-1.7763242-1.41720503-2.786115-.88161329-1.0097908.53559173-1.3995989 1.79866922-.8706609 2.82116252l5.0454207 9.75333337c.528938 1.0224933 1.7763242 1.417205 2.786115.8816133 1.0097907-.5355918 1.3995989-1.7986693.8706609-2.8211626z" transform="matrix(.8660254 .5 -.5 .8660254 9.122055 -16.674975)"/></g><g opacity=".5" transform="matrix(-.05233596 .99862953 .99862953 .05233596 2.302782 90)"><path d="m24.6147648 16.1860199-5.0454207-9.75333332c-.5289381-1.02249331-1.7763242-1.41720502-2.786115-.88161329s-1.399599 1.79866922-.8706609 2.82116253l5.0454207 9.75333328c.528938 1.0224934 1.7763241 1.4172051 2.7861149.8816133 1.0097908-.5355917 1.399599-1.7986692.870661-2.8211625z"/><path d="m11.9222521 27.3764765-5.0454207-9.7533333c-.52893803-1.0224933-1.77632419-1.417205-2.78611497-.8816133s-1.39959895 1.7986692-.87066093 2.8211625l5.0454207 9.7533333c.52893803 1.0224934 1.7763242 1.4172051 2.786115.8816133 1.0097908-.5355917 1.3995989-1.7986692.8706609-2.8211625z" transform="matrix(.91354546 -.40673664 .40673664 .91354546 -8.891379 5.108518)"/><path d="m40.0280531 12.5913912-5.0454207-9.7533333c-.528938-1.02249331-1.7763242-1.41720503-2.786115-.88161329-1.0097908.53559173-1.3995989 1.79866922-.8706609 2.82116252l5.0454207 9.75333337c.528938 1.0224933 1.7763242 1.417205 2.786115.8816133 1.0097907-.5355918 1.3995989-1.7986693.8706609-2.8211626z" transform="matrix(.8660254 .5 -.5 .8660254 9.122055 -16.674975)"/></g></g></g></g></svg>