<svg width="20" height="22" viewBox="0 0 20 22" fill="none"
	xmlns="http://www.w3.org/2000/svg">
	<path d="M12.7615 1.83337C13.9996 3.07149 14.9817 4.54134 15.6518 6.15902C16.3219 7.77669 16.6667 9.51051 16.6667 11.2615C16.6667 13.0124 16.3219 14.7462 15.6518 16.3639C14.9817 17.9816 13.9996 19.4514 12.7615 20.6896" stroke="#FFFFFF" stroke-width="2" stroke-linecap="round"/>
	<path d="M9.81514 4.7793C10.6663 5.6305 11.3416 6.64103 11.8022 7.75318C12.2629 8.86533 12.5 10.0573 12.5 11.2611C12.5 12.4649 12.2629 13.6569 11.8022 14.769C11.3416 15.8812 10.6664 16.8917 9.81515 17.7429" stroke="#FFFFFF" stroke-width="2" stroke-linecap="round"/>
	<path d="M6.86878 7.72607C7.33308 8.19037 7.70138 8.74156 7.95265 9.34819C8.20392 9.95482 8.33325 10.605 8.33325 11.2616C8.33325 11.9182 8.20392 12.5684 7.95265 13.175C7.70138 13.7817 7.33308 14.3328 6.86879 14.7971" stroke="#FFFFFF" stroke-width="2" stroke-linecap="round"/>
	<mask id="path-4-inside-1" fill="white">
		<ellipse cx="3.74992" cy="11.2612" rx="0.833333" ry="0.833334" transform="rotate(90 3.74992 11.2612)"/>
	</mask>
	<path d="M3.74992 11.0945C3.84196 11.0945 3.91658 11.1691 3.91658 11.2612H1.91658C1.91658 12.2737 2.7374 13.0945 3.74992 13.0945V11.0945ZM3.91658 11.2612C3.91658 11.3532 3.84196 11.4279 3.74992 11.4279V9.42786C2.7374 9.42786 1.91658 10.2487 1.91658 11.2612H3.91658ZM3.74992 11.4279C3.65787 11.4279 3.58325 11.3532 3.58325 11.2612H5.58325C5.58325 10.2487 4.76244 9.42786 3.74992 9.42786V11.4279ZM3.58325 11.2612C3.58325 11.1691 3.65787 11.0945 3.74992 11.0945V13.0945C4.76244 13.0945 5.58325 12.2737 5.58325 11.2612H3.58325Z" fill="#FFFFFF" mask="url(#path-4-inside-1)"/>
</svg>
